<svg width="971" height="718" viewBox="0 0 971 718" fill="none" xmlns="http://www.w3.org/2000/svg">
<path d="M0 0H971V708C971 713.523 966.523 718 961 718H10C4.47716 718 0 713.523 0 708V0Z" fill="#C7E6FF"/>
<g clip-path="url(#clip0_41_576)">
<mask id="mask0_41_576" style="mask-type:luminance" maskUnits="userSpaceOnUse" x="0" y="0" width="971" height="718">
<path d="M0 0H971V718H0V0Z" fill="white"/>
</mask>
<g mask="url(#mask0_41_576)">
<path fill-rule="evenodd" clip-rule="evenodd" d="M0 -141.207H971V718H0V-141.207Z" fill="#46A9E7" fill-opacity="0.0714"/>
<path fill-rule="evenodd" clip-rule="evenodd" d="M581.785 403.277C570.424 375.885 449.535 442.35 421.939 427.678C387.054 409.129 373.654 403.744 362.062 373.828C351.961 347.698 355.378 329.631 348.834 309.182C323.928 232.186 260.805 220.952 202.499 204.163C188.494 200.251 176.675 193.814 165.77 185.483V470.248L159 611.497L449.535 561.888C452.979 546.107 588.099 418.551 581.785 403.277Z" fill="#C1E7FF"/>
<path fill-rule="evenodd" clip-rule="evenodd" d="M536.924 882.004L983 429.376C980.362 428.634 977.486 427.562 975.055 426.9C940.464 418.152 910.812 430.021 881.979 440.487C852.559 450.978 827.766 455.63 790.533 445.292C756.442 435.756 671.664 377.715 646.481 368.816C551.551 335.024 524.505 422.828 488.473 488.146C467.839 525.316 435.613 546.335 391.882 542.599C352.81 539.251 151.146 565.99 110 533.713L205 663.552L537.014 881.913L536.924 882.004Z" fill="#9ED2F2"/>
<path fill-rule="evenodd" clip-rule="evenodd" d="M-27.8591 909.325C117.863 871.56 65.1463 703.519 100.191 623.236C146.742 517.018 263.133 521.591 299.214 404.225C312.179 362.229 310.729 314.074 312.839 267.812C314.974 221.75 322.421 172.114 347.909 143.374C366.232 122.681 390.857 115.939 414.332 109.963C437.827 104.182 462.645 97.8079 480.984 77.317C499.496 56.9993 539.112 -12.9004 508.782 -73.7741C506.243 -79.2265 -127.457 4.07324 -127.457 4.07324L-27.8591 909.325Z" fill="#BCDFF6"/>
<path fill-rule="evenodd" clip-rule="evenodd" d="M457.803 -31.1133C484.246 52.0808 421.662 117.709 353.441 103.105C294.14 90.7219 248.455 95.8979 208.556 110.684C161.461 128.067 111.55 164.671 94.1817 219.394C81.3488 259.513 85.5749 303.883 86.2029 346.958C86.8258 390.033 81.8223 436.806 56.002 466.944C24.2413 504.101 -27.3943 502.623 -66.8197 528.321C-72.2968 532.019 -77.3054 536.271 -82 540.893V-31.1133L457.803 -31.1133Z" fill="#E6F5FF"/>
<path fill-rule="evenodd" clip-rule="evenodd" d="M94 -31.1133C72.9917 -14.9378 55.9618 6.62942 47.1597 33.5939C35.3831 69.2132 39.3569 108.429 39.9219 146.338C40.3469 184.409 35.9482 225.909 12.5304 252.379C-11.882 280.322 -49.4953 283.59 -82 297.97V-31.1133L94 -31.1133Z" fill="#9ED2F2"/>
<path fill-rule="evenodd" clip-rule="evenodd" d="M1002.87 561.34C960.746 541.165 926.188 496.214 892.43 453.786C858.249 410.888 824.938 378.677 779.107 358.492C739.084 340.917 639.49 327.221 608.47 316.549C491.608 275.76 461.37 135.1 424.166 6.47773C415.405 -24.4426 403.476 -49.9003 389.013 -72.905L800.795 -130.635L1003.55 -174.601L1075.65 561.937C1053.6 572.934 1026.36 572.54 1002.87 561.34Z" fill="#BCDFF6"/>
<path fill-rule="evenodd" clip-rule="evenodd" d="M1067 -14.3604V812.536C1064.81 810.259 1062.26 807.976 1060.26 805.86C1032.22 775.242 1020.57 734.197 1008.55 695.108C996.166 655.365 983.053 625.074 952.279 592.822C924.057 563.346 831.921 516.273 809.888 495.916C726.672 419.367 765.275 323.109 783.667 234.343C794.048 183.69 786.578 132.877 755.81 88.5737C728.313 48.9968 689.344 8.76627 642 -10.9418L681.88 -14.1943H1067V-14.3604Z" fill="#E6F5FF"/>
<path fill-rule="evenodd" clip-rule="evenodd" d="M1066.8 -70.144V456.02C1004.49 452.886 942.327 400.377 932.409 276.401C921.43 139.903 869.845 131.208 788.495 87.3941C713.103 46.7039 700.67 -35.8894 698.947 -69.9667H1066.8V-70.144Z" fill="#9ED2F2"/>
<path fill-rule="evenodd" clip-rule="evenodd" d="M1207.92 87.3564C1088.93 99.8599 1117.49 230.121 1083.19 285.943C1037.67 359.779 945.407 343.999 907.331 427.219C893.663 456.991 890.977 492.866 885.609 526.958C880.237 560.898 870.352 596.925 847.774 615.53C831.541 628.93 811.405 631.311 792.245 633.245C773.085 635.033 752.824 637.119 736.595 650.367C720.241 663.468 683.137 711.102 702.422 759.485C704.008 763.8 1215 769.456 1215 769.456L1207.92 87.3564Z" fill="#BCDFF6"/>
<path fill-rule="evenodd" clip-rule="evenodd" d="M825.334 730.652C806.869 666.02 850.571 615.034 898.21 626.38C939.619 636 971.52 631.979 999.381 620.492C1032.27 606.987 1067.12 578.551 1079.25 536.038C1088.21 504.87 1085.26 470.399 1084.82 436.935C1084.38 403.471 1087.88 367.134 1105.91 343.72C1128.09 314.854 1164.14 316.002 1191.67 296.038C1195.5 293.165 1199 289.862 1202.27 286.271V730.652H825.334Z" fill="#E6F5FF"/>
<path fill-rule="evenodd" clip-rule="evenodd" d="M933.303 730.651C949.475 716.433 962.584 697.475 969.36 673.773C978.425 642.464 975.366 607.993 974.931 574.671C974.604 541.207 977.99 504.728 996.017 481.461C1014.81 456.899 1043.76 454.026 1068.78 441.386V730.651H933.303Z" fill="#9ED2F2"/>
<path fill-rule="evenodd" clip-rule="evenodd" d="M-110.258 465.699C-58.4981 478.756 -19.6233 503.685 18.5373 527.294C57.1846 551.169 96.0594 569.632 152.59 582.953C201.965 594.561 328.618 608.407 367.257 615.927C512.751 644.549 533.977 717.087 565.704 784.089C573.096 800.183 585.259 813.765 601 826.296H62.9051L-204 834.077V460.293C-174.181 456.335 -139.12 458.444 -110.258 465.699Z" fill="#C1E7FF"/>
<path fill-rule="evenodd" clip-rule="evenodd" d="M-242 758.686V55.0464C-146.984 59.2386 -52.1728 129.459 -37.0479 295.251C-20.3038 477.79 58.3667 489.418 182.432 548.01C297.411 602.426 316.372 712.878 319 758.449H-242L-242 758.686Z" fill="#9ED2F2"/>
</g>
</g>
<defs>
<clipPath id="clip0_41_576">
<path d="M0 0H971V708C971 713.523 966.523 718 961 718H10C4.47716 718 0 713.523 0 708V0Z" fill="white"/>
</clipPath>
</defs>
</svg>
