<svg width="307" height="214" viewBox="0 0 307 214" fill="none" xmlns="http://www.w3.org/2000/svg">
<path d="M87.9831 158.748C40.3631 150.14 20.1789 116.258 20.9958 89.7393C22.3661 45.3035 67.5985 19.9451 105.908 10.6838C144.539 1.35189 186.213 3.31882 223.984 15.5349C256.697 26.1193 302.999 48.3554 305.913 87.7901C307.281 106.3 297.656 124.429 284.383 136.728C248.661 169.83 189.214 178.13 143.004 170.263C140.983 184.922 146.367 202.815 157.754 212.266C128.685 207.595 99.5298 185.83 87.9831 158.748Z" fill="#272525"/>
<path d="M80.3641 161.534C32.3461 155.532 10.3456 122.797 9.7172 96.2725C8.66529 51.8305 52.4496 24.0377 90.197 12.7036C128.263 1.2813 169.982 0.972593 208.363 11.116C241.604 19.9098 289.048 39.5879 294.106 78.803C296.479 97.2162 287.857 115.845 275.274 128.849C241.406 163.849 182.5 175.376 135.93 170.036C134.711 184.785 141.061 202.359 152.946 211.176C123.666 208.095 93.3688 187.949 80.3641 161.534Z" fill="#A8DADC"/>
<path d="M290.343 94.057C288.031 106.011 281.866 117.234 273.537 126.065C258.331 142.189 238.137 152.868 217.203 159.55C196.022 166.312 173.435 169.101 151.247 168.358C146.089 168.185 140.939 167.811 135.812 167.228C134.134 167.037 132.787 168.268 132.662 169.875C131.662 182.692 135.783 196.936 144.312 206.974C125.102 202.774 106.813 191.64 94.086 176.743C89.9793 171.935 86.3188 166.659 83.5034 160.988C83.2547 160.215 82.6672 159.641 81.9519 159.261C81.4588 158.957 80.9005 158.774 80.3025 158.736C80.284 158.735 80.2646 158.728 80.2452 158.726C69.1598 157.318 58.3276 154.244 48.6049 149.126C44.2777 146.848 40.4973 144.412 36.8651 141.503C35.0895 140.082 33.3799 138.579 31.7457 136.998C30.9505 136.229 30.1725 135.441 29.4142 134.635C29.0772 134.277 28.7458 133.912 28.4146 133.549C28.0743 133.176 28.0087 133.1 27.5502 132.558C24.8493 129.374 22.4375 125.944 20.3754 122.314C18.5855 119.162 17.0126 115.665 15.7434 111.86C13.2003 104.231 12.4213 96.5161 13.3174 88.1509C15.4629 68.1129 28.1042 51.372 43.625 39.3146C60.1992 26.437 80.1499 17.9959 100.192 12.9683C127.346 6.15905 155.758 4.8977 183.453 8.85802C195.09 10.5162 206.563 13.2241 217.786 16.7081C222.296 18.1017 226.765 19.6365 231.177 21.3212C235.653 23.0323 239.835 24.814 244.402 27.0103C253.277 31.2793 261.661 36.2451 269.054 42.4105C276.045 48.2495 282.22 55.1647 286.145 63.2441C290.803 72.8318 292.375 83.5484 290.343 94.057ZM296.718 75.028C292.757 54.9089 277.435 39.8438 260.579 29.4447C243.211 18.7192 223.358 11.7423 203.565 7.06751C175.188 0.364075 145.496 -0.835487 116.689 3.71579C93.3601 7.39386 70.4643 14.7941 50.2834 27.2043C32.5251 38.1326 16.479 53.6476 9.74071 73.8285C6.69391 82.9575 5.58793 93.0241 7.00915 102.563C8.22477 110.72 11.0955 118.49 15.2641 125.596C25.5508 143.131 43.3084 154.996 62.5596 160.684C67.6895 162.198 72.9384 163.276 78.2306 164.037C89.5726 185.458 110.148 201.48 132.857 209.423C139.393 211.709 146.181 213.241 153.065 213.984C155.575 214.255 157.449 211.019 155.205 209.331C144.283 201.124 138.861 186.646 139.069 173.154C160.936 175.298 183.311 173.836 204.714 168.955C227.303 163.804 249.461 154.701 267.625 140.09C277.126 132.447 285.511 123.312 290.973 112.328C296.735 100.741 299.237 87.8254 296.718 75.028Z" fill="#272525"/>
<path d="M254.96 18.0576C258.632 19.2307 261.581 20.4213 264.858 22.0619C268.193 23.7378 271.402 25.6518 274.456 27.7951C277.13 29.6739 280.128 32.1612 282.693 34.6044C285.297 37.0918 287.672 39.7026 289.786 42.4722C292.268 45.7269 294.451 49.2021 296.292 52.8537C297.711 55.6674 303.96 54.3443 302.224 50.8956C295.259 37.0565 283.349 25.7577 269.679 18.6309C265.677 16.5405 261.485 14.7852 257.184 13.418C255.768 12.9682 253.663 13.2769 252.963 14.7675C252.256 16.267 253.622 17.6342 254.96 18.0576Z" fill="#272525"/>
<path d="M5.23103 50.578C7.59011 46.7059 10.1911 43.0102 13.0605 39.5438C16.0484 35.9451 19.0131 32.8316 22.3273 29.8327C25.8919 26.6045 28.7513 24.3465 32.6788 21.6739C33.6241 21.03 34.581 20.4037 35.5478 19.7951C35.741 19.6716 35.9351 19.5482 36.129 19.4247C37.0821 18.8338 35.5836 19.751 36.5494 19.1689C37.0407 18.8778 37.5311 18.5867 38.025 18.2957C40.0026 17.149 42.0198 16.0642 44.0722 15.0587C45.4173 14.3883 46.0656 14.0884 47.3878 13.5151C48.5397 13.0124 49.7022 12.5272 50.8736 12.0685C53.2057 11.1512 55.6348 10.2957 57.9863 9.59008C59.4655 9.14906 60.9905 8.26701 61.8275 6.92632C62.4494 5.92963 62.0392 4.94175 60.7259 5.33867C41.2215 11.1689 23.4818 22.6353 10.1901 38.0708C6.53 42.3222 3.20509 46.8647 0.286894 51.6541C-0.367749 52.7302 0.139063 53.4975 1.38908 53.2417C2.81444 52.9507 4.46754 51.8305 5.23103 50.578Z" fill="#272525"/>
<path d="M19.5067 17.6871C28.0411 10.6485 38.2207 5.72675 49.0529 3.45993C49.6483 3.33644 47.5076 1.92514 47.3418 1.8193C46.6282 1.36064 45.8891 0.928465 45.1261 0.558012C44.7698 0.381605 44.0791 -0.0770681 43.684 0.011135C32.7303 2.2956 22.4518 7.19088 13.8151 14.3177C13.5467 14.5382 16.2249 16.2582 16.4358 16.3817C16.8699 16.6375 18.9782 18.1193 19.5067 17.6871Z" fill="#272525"/>
<path d="M110.128 72.686C110.159 72.9007 110.174 73.1 110.174 73.284C110.174 73.468 110.174 73.652 110.174 73.836V75.722L109.898 99.596V100.056C109.898 100.24 109.852 100.516 109.76 100.884C109.729 101.037 109.683 101.206 109.622 101.39C109.561 101.543 109.499 101.712 109.438 101.896C109.285 102.264 109.07 102.54 108.794 102.724C108.549 102.969 108.15 103.138 107.598 103.23C106.739 103.414 105.957 103.337 105.252 103C104.853 102.755 104.577 102.448 104.424 102.08C104.363 102.019 104.301 101.927 104.24 101.804C104.24 101.743 104.209 101.651 104.148 101.528C104.087 101.375 104.041 101.221 104.01 101.068C103.979 100.884 103.949 100.7 103.918 100.516C103.918 100.363 103.903 100.209 103.872 100.056C103.872 99.9027 103.857 99.7493 103.826 99.596C103.765 99.4427 103.734 99.32 103.734 99.228C103.734 99.1053 103.734 98.9673 103.734 98.814C103.795 98.6913 103.826 98.4613 103.826 98.124L103.872 94.49L103.918 88.694H101.434L92.096 88.74L92.004 99.596V100.056C92.004 100.24 91.958 100.516 91.866 100.884C91.8353 101.037 91.7893 101.206 91.728 101.39C91.6667 101.543 91.6053 101.712 91.544 101.896C91.3907 102.264 91.176 102.54 90.9 102.724C90.6547 102.969 90.256 103.138 89.704 103.23C88.8453 103.414 88.0633 103.337 87.358 103C87.0513 102.816 86.76 102.509 86.484 102.08C86.4227 101.957 86.392 101.865 86.392 101.804L86.254 101.528C86.1927 101.375 86.1467 101.221 86.116 101.068C86.0853 100.884 86.0547 100.7 86.024 100.516C86.024 100.363 86.0087 100.209 85.978 100.056C85.9473 99.9027 85.9167 99.7493 85.886 99.596C85.8553 99.3507 85.8553 99.09 85.886 98.814V98.124L85.932 94.49L86.024 87.728C86.0547 86.7467 86.07 85.7347 86.07 84.692C86.07 83.6493 86.07 82.576 86.07 81.472C86.0393 80.368 86.024 79.3867 86.024 78.528C86.0547 77.6693 86.1007 76.7033 86.162 75.63V75.446C86.1927 75.1393 86.208 74.8327 86.208 74.526C86.208 74.1887 86.2233 73.8513 86.254 73.514C86.2847 73.2073 86.3307 72.916 86.392 72.64C86.484 72.3333 86.6067 72.0267 86.76 71.72C86.852 71.4747 86.9747 71.2753 87.128 71.122C87.2813 70.938 87.4653 70.7693 87.68 70.616C88.1707 70.3707 88.6613 70.248 89.152 70.248C89.3973 70.248 89.612 70.2633 89.796 70.294C89.98 70.294 90.164 70.3093 90.348 70.34C90.716 70.3707 91.0687 70.5547 91.406 70.892C91.6513 71.1067 91.82 71.352 91.912 71.628C92.0653 72.0267 92.1573 72.3793 92.188 72.686C92.2187 72.9007 92.234 73.1 92.234 73.284C92.234 73.468 92.234 73.652 92.234 73.836V75.722L92.142 83.312C92.3873 83.312 92.6633 83.312 92.97 83.312C93.3073 83.312 93.6907 83.2967 94.12 83.266C95.7147 83.266 97.294 83.2813 98.858 83.312C100.453 83.3427 102.124 83.358 103.872 83.358H103.918C103.918 81.978 103.918 80.6593 103.918 79.402C103.949 78.1447 103.995 76.826 104.056 75.446C104.056 75.1393 104.056 74.8327 104.056 74.526C104.087 74.1887 104.117 73.8513 104.148 73.514C104.179 73.2073 104.225 72.916 104.286 72.64C104.378 72.3333 104.501 72.0267 104.654 71.72C104.715 71.4747 104.823 71.2753 104.976 71.122C105.16 70.938 105.375 70.7693 105.62 70.616C106.049 70.3707 106.525 70.248 107.046 70.248C107.291 70.248 107.506 70.2633 107.69 70.294C107.905 70.294 108.089 70.3093 108.242 70.34C108.671 70.4013 109.024 70.5853 109.3 70.892C109.545 71.0453 109.714 71.2907 109.806 71.628C109.867 71.812 109.913 71.996 109.944 72.18C110.005 72.3333 110.067 72.502 110.128 72.686ZM119.805 82.208C120.817 81.7173 121.875 81.3647 122.979 81.15C124.083 80.9353 125.172 80.8893 126.245 81.012C127.349 81.1347 128.407 81.426 129.419 81.886C130.462 82.346 131.413 82.99 132.271 83.818C132.977 84.5233 133.59 85.382 134.111 86.394C134.633 87.3753 135.016 88.3413 135.261 89.292C135.783 90.9787 135.859 92.6807 135.491 94.398C135.123 96.1153 134.495 97.71 133.605 99.182C133.176 99.8567 132.639 100.47 131.995 101.022C131.382 101.543 130.723 101.973 130.017 102.31C129.097 102.739 128.101 103.031 127.027 103.184C125.954 103.368 124.911 103.414 123.899 103.322C122.059 103.23 120.434 102.77 119.023 101.942C117.643 101.114 116.524 100.056 115.665 98.768C114.837 97.48 114.285 96.0233 114.009 94.398C113.764 92.742 113.871 91.0553 114.331 89.338C114.822 87.498 115.527 86.0107 116.447 84.876C117.398 83.7107 118.517 82.8213 119.805 82.208ZM121.185 88.372C120.725 88.8013 120.373 89.338 120.127 89.982C119.882 90.626 119.729 91.3007 119.667 92.006C119.606 92.6807 119.652 93.3707 119.805 94.076C119.989 94.7507 120.265 95.364 120.633 95.916C120.94 96.376 121.492 96.7593 122.289 97.066C123.087 97.3727 123.915 97.5567 124.773 97.618C125.755 97.6793 126.613 97.4187 127.349 96.836C128.085 96.2227 128.637 95.4713 129.005 94.582C129.404 93.6927 129.588 92.7267 129.557 91.684C129.527 90.6413 129.251 89.6907 128.729 88.832C128.361 88.2187 127.84 87.774 127.165 87.498C126.521 87.1913 125.831 87.038 125.095 87.038C124.39 87.0073 123.685 87.1147 122.979 87.36C122.274 87.5747 121.676 87.912 121.185 88.372ZM145.999 99.32C145.968 99.4733 145.938 99.6267 145.907 99.78C145.907 99.9027 145.907 100.041 145.907 100.194L145.631 101.16C145.57 101.283 145.524 101.359 145.493 101.39L145.355 101.666C145.202 102.003 144.926 102.279 144.527 102.494C143.791 102.862 143.009 102.954 142.181 102.77C141.66 102.709 141.246 102.555 140.939 102.31C140.632 102.095 140.418 101.835 140.295 101.528C140.172 101.221 140.08 100.915 140.019 100.608C139.927 100.301 139.881 100.025 139.881 99.78V74.02C139.881 73.8053 139.881 73.6213 139.881 73.468C139.912 73.284 139.942 73.1153 139.973 72.962C140.004 72.7473 140.034 72.5633 140.065 72.41C140.126 72.2567 140.188 72.088 140.249 71.904C140.341 71.5973 140.51 71.352 140.755 71.168C141.123 70.892 141.476 70.7387 141.813 70.708C142.028 70.6467 142.227 70.616 142.411 70.616C142.595 70.5853 142.81 70.57 143.055 70.57C143.484 70.57 143.975 70.6927 144.527 70.938C144.956 71.1833 145.263 71.5207 145.447 71.95C145.754 72.5633 145.907 73.1307 145.907 73.652C145.938 73.9587 145.953 74.4187 145.953 75.032C145.984 75.6453 145.999 76.1053 145.999 76.412V76.596C146.06 77.5773 146.091 78.528 146.091 79.448C146.091 80.3373 146.076 81.3187 146.045 82.392C146.045 83.4347 146.03 84.4467 145.999 85.428C145.999 86.3787 145.999 87.3293 145.999 88.28V97.94C145.999 98.0627 145.999 98.1853 145.999 98.308C146.03 98.4 146.045 98.5073 146.045 98.63C146.045 98.9367 146.03 99.1667 145.999 99.32ZM155.146 83.634C156.066 83.174 157.032 82.852 158.044 82.668C159.056 82.4533 160.052 82.4073 161.034 82.53C162.046 82.622 163.012 82.8827 163.932 83.312C164.852 83.7107 165.71 84.2933 166.508 85.06C167.305 85.8573 167.918 86.7313 168.348 87.682C168.777 88.6327 169.084 89.6907 169.268 90.856C169.39 91.6533 169.59 92.3893 169.866 93.064C170.142 93.7387 170.433 94.4133 170.74 95.088C171.077 95.7627 171.384 96.4373 171.66 97.112C171.966 97.7867 172.212 98.492 172.396 99.228C172.549 99.9333 172.488 100.623 172.212 101.298C171.966 101.942 171.445 102.341 170.648 102.494C170.188 102.586 169.743 102.555 169.314 102.402C168.915 102.218 168.547 101.973 168.21 101.666C167.872 101.329 167.566 100.976 167.29 100.608C167.044 100.209 166.814 99.8413 166.6 99.504C165.894 100.424 165.128 101.145 164.3 101.666C163.472 102.157 162.475 102.479 161.31 102.632C160.328 102.755 159.393 102.785 158.504 102.724C157.614 102.663 156.664 102.494 155.652 102.218C154.333 101.881 153.244 101.298 152.386 100.47C151.558 99.6113 150.914 98.63 150.454 97.526C150.024 96.3913 149.794 95.18 149.764 93.892C149.733 92.604 149.886 91.3313 150.224 90.074C150.653 88.418 151.297 87.0687 152.156 86.026C153.014 84.9833 154.011 84.186 155.146 83.634ZM156.296 89.016C155.866 89.4453 155.529 89.9513 155.284 90.534C155.038 91.1167 154.885 91.73 154.824 92.374C154.793 93.018 154.854 93.662 155.008 94.306C155.161 94.95 155.406 95.5173 155.744 96.008C156.05 96.4373 156.572 96.8053 157.308 97.112C158.044 97.388 158.81 97.5567 159.608 97.618C160.528 97.6793 161.325 97.434 162 96.882C162.705 96.33 163.226 95.64 163.564 94.812C163.932 93.9533 164.1 93.0487 164.07 92.098C164.039 91.1167 163.778 90.2273 163.288 89.43C162.92 88.8473 162.429 88.418 161.816 88.142C161.233 87.866 160.604 87.728 159.93 87.728C159.255 87.6973 158.58 87.8047 157.906 88.05C157.262 88.2647 156.725 88.5867 156.296 89.016Z" fill="black"/>
</svg>
