<svg width="261" height="180" viewBox="0 0 261 180" fill="none" xmlns="http://www.w3.org/2000/svg">
<path d="M134.777 150.457C125.932 168.986 98.4131 178.011 79.6173 176.834C91.117 176.601 104.112 161.207 105.513 149.35L105.507 149.349C91.4168 152.944 74.5892 150.276 63.0425 142.314C56.5809 137.859 50.9624 131.458 49.641 123.721C41.0184 123.466 32.4714 120.954 25.0818 116.504C16.1765 111.143 8.57046 101.699 9.58849 91.3556C10.5873 81.1995 19.2327 73.7427 27.2349 67.4103C22.6287 65.0901 18.9229 60.3048 17.3194 55.4074C16.6469 53.3513 16.6719 51.1168 17.091 48.9965C18.5566 41.5647 26.6288 33.7116 36.999 33.4903C35.6969 27.0437 38.2527 20.2116 42.6525 15.3213C47.0523 10.431 53.0991 7.28984 59.3423 5.2195C80.5611 -1.81965 105.386 3.42756 121.949 18.4339C123.406 12.4157 130.82 7.47547 136.959 6.66161C143.097 5.84061 149.579 9.11742 152.56 14.5431C167.059 5.71207 187.677 9.00319 201.941 16.9347C207.609 20.0831 212.721 24.4308 216.048 29.9922C219.374 35.5535 220.788 42.3999 219.16 48.6752C229.783 42.4856 244.376 46.1622 253.485 54.4293C255.163 55.9571 256.712 57.6561 257.868 59.6123C261.781 66.2066 261.481 77.6114 254.813 81.9948C261.345 90.9915 254.12 101.411 246.781 107.165C237.001 114.833 223.929 116.044 212.043 113.562C213.313 113.827 214.149 119.863 214.277 120.939C214.591 123.676 214.413 126.46 213.863 129.154C212.742 134.596 210.108 139.509 206.446 143.649C189.476 162.825 158.792 165.582 137.281 152.168C136.422 151.632 135.586 151.061 134.777 150.457Z" fill="#272525"/>
<path d="M131.751 146.427C124.264 165.545 97.4679 176.531 78.6364 176.713C90.089 175.651 101.941 159.36 102.483 147.433H102.477C88.6832 152.034 71.7064 150.586 59.6156 143.477C52.8492 139.5 46.7838 133.521 44.9084 125.899C36.2894 126.266 27.5847 124.378 19.8923 120.472C10.6243 115.766 2.35653 106.897 2.62639 96.5057C2.89054 86.304 10.9748 78.2432 18.4995 71.3504C13.7391 69.3686 9.69765 64.866 7.7451 60.0906C6.92625 58.0917 6.7899 55.8643 7.05476 53.7154C7.98213 46.1979 15.4661 37.7881 25.7928 36.81C24.0294 30.4777 26.0862 23.4813 30.1219 18.2912C34.1583 13.0939 39.9624 9.51728 46.0392 7.00431C66.6955 -1.54119 91.8344 1.89985 109.437 15.6783C110.457 9.56724 117.494 4.10584 123.557 2.84222C129.622 1.58574 136.322 4.3914 139.688 9.58866C153.511 -0.263293 174.312 1.52859 189.112 8.40354C194.994 11.1378 200.406 15.1071 204.125 20.4186C207.838 25.723 209.744 32.4481 208.573 38.8233C218.725 31.8912 233.546 34.5041 243.226 42.0858C245.011 43.4922 246.674 45.0771 247.974 46.9476C252.343 53.2371 252.871 64.6347 246.539 69.4878C253.706 77.9898 247.245 88.9034 240.342 95.1715C231.14 103.524 218.189 105.675 206.153 104.057C207.438 104.23 208.709 110.19 208.916 111.254C209.43 113.96 209.451 116.75 209.094 119.477C208.373 124.985 206.096 130.075 202.74 134.468C187.199 154.819 156.794 159.781 134.372 147.953C133.476 147.48 132.6 146.971 131.751 146.427Z" fill="#C5EBFF"/>
<path d="M244.433 71.1034C249.808 77.6542 245.753 85.9127 240.842 91.3742C235.494 97.3132 228.113 100.63 220.288 101.759C215.748 102.416 211.114 102.298 206.574 101.702C204.161 101.386 202.326 105.08 204.618 106.141C204.668 106.228 204.711 106.314 204.754 106.403C205.039 107.01 205.26 107.652 205.46 108.293C205.746 109.198 206.017 110.306 206.246 111.424C207.067 115.487 206.767 119.649 205.632 123.623C203.633 130.633 198.643 136.593 193.031 141.055C182.558 149.388 168.822 152.91 155.432 151.657C147.724 150.937 139.95 148.574 133.383 144.424C132.752 144.026 132.048 143.986 131.395 144.17C130.537 144.308 129.73 144.804 129.36 145.733C126.408 153.164 120.766 158.837 114.183 163.251C107.476 167.747 99.5753 170.942 91.6923 172.747C91.6624 172.753 91.6331 172.759 91.6031 172.766C92.165 172.272 92.7104 171.766 93.2372 171.251C97.4414 167.132 100.849 161.987 102.971 156.492C104.079 153.623 104.902 150.615 105.065 147.533C105.136 146.182 104.33 145.143 102.903 145.078C101.964 145.036 100.898 145.56 99.9958 145.813C98.8657 146.13 97.7256 146.407 96.5762 146.645C94.4923 147.077 92.3777 147.392 90.2566 147.566C85.9668 147.917 81.577 147.742 77.3271 147.067C69.11 145.762 60.9014 142.449 54.7575 136.722C51.4528 133.642 48.6457 129.828 47.5113 125.391C47.2543 124.383 46.4711 123.501 45.3282 123.544C34.1176 123.973 21.9512 120.724 13.5213 113.027C9.97106 109.786 6.88842 105.686 5.74331 100.939C4.5211 95.8711 5.70546 90.863 8.26483 86.4118C11.2276 81.2588 15.7152 77.0467 20.055 73.0659C21.4893 71.7509 21.435 69.9062 19.561 69.0988C14.2945 66.8314 9.20503 60.6118 9.55199 54.6792C9.84898 49.6104 13.0766 45.1414 17.1965 42.2714C19.7845 40.4724 22.8621 39.4443 26.0505 39.1159C27.1941 38.9946 28.7305 37.5596 28.3957 36.3031C26.6409 29.6994 28.9797 22.9673 33.4544 17.9913C37.9043 13.0439 44.1574 9.94559 50.362 7.811C62.5449 3.62035 76.1505 3.77027 88.404 7.56113C95.4325 9.73856 101.997 13.1653 107.805 17.6773C109.286 18.8266 111.716 17.4202 112.019 15.7782C112.968 10.6309 118.431 6.49028 123.174 5.29091C128.734 3.89879 134.465 6.51169 137.585 11.2021C138.368 12.38 140.327 11.9446 141.243 11.3021C149.975 5.15529 161.326 4.1772 171.635 5.70497C182.265 7.28271 193.581 11.6733 200.577 20.1402C204.825 25.2804 207.145 32.0768 205.996 38.7233C205.567 41.1863 208.58 41.5789 210.129 40.5438C217.176 35.8105 226.549 36.503 234.095 39.6514C238.222 41.379 242.277 44.0348 245.104 47.5401C247.331 50.3029 248.466 54.0438 248.645 57.6705C248.745 59.5267 248.545 61.5256 247.981 63.2604C247.367 65.1501 246.36 66.6864 244.982 67.7716C243.947 68.5876 243.547 70.0211 244.433 71.1034ZM250.886 46.5692C248.074 41.9859 243.44 38.5448 238.643 36.2317C233.952 33.9686 228.812 32.5765 223.587 32.448C219.41 32.3481 215.305 33.0763 211.514 34.6826C211.529 22.6603 202.705 12.43 192.174 7.09709C181.459 1.66424 168.858 -0.684497 156.922 0.807574C151.139 1.53576 145.515 3.34905 140.52 6.3332C136.147 1.31441 128.769 -0.991506 122.335 0.77899C116.736 2.3139 110.935 6.23323 108.215 11.6018C97.4521 4.18431 84.3826 0.207876 71.3359 0.00798137C64.2682 -0.0991051 57.1698 0.871812 50.4277 3.0064C43.1308 5.31233 36.108 8.78189 30.6152 14.2076C25.2223 19.5262 21.6999 27.3578 22.7386 34.9824C16.7967 36.3388 11.3268 39.9941 7.92785 45.0557C6.20161 47.6258 4.86163 50.5171 4.47326 53.6154C3.92712 57.9703 5.18075 61.7683 7.58163 65.3629C9.38425 68.06 11.6944 70.3095 14.4009 72.0036C6.65208 79.3576 -1.15736 88.3864 0.142673 99.6955C1.50481 111.533 11.8915 119.981 22.2161 124.285C28.7226 126.998 35.8168 128.325 42.8659 128.272C45.6195 136.382 52.2702 142.551 59.782 146.477C68.1361 150.842 77.7804 152.726 87.1683 152.398C91.3525 152.252 95.4568 151.675 99.4832 150.657C98.4809 155.804 95.8916 160.675 92.7147 164.766C90.7364 167.314 88.4755 169.615 85.8262 171.469C83.5495 173.063 81.1786 174.122 78.3786 174.411C75.6772 174.69 75.1118 179.106 78.2166 179.067C86.9356 178.958 95.601 176.973 103.694 173.784C112.051 170.492 119.973 165.716 126.217 159.206C128.831 156.481 131.098 153.379 132.821 150.009C145.459 156.894 161.191 158.297 175.005 154.783C182.387 152.905 189.426 149.649 195.48 145.002C202.005 139.995 207.709 133.296 210.308 125.4C211.907 120.526 212.471 115.229 211.4 110.177C211.164 109.059 210.893 107.94 210.572 106.84C218.354 107.211 226.292 106.006 233.324 102.604C241.541 98.6282 248.952 91.3163 251.572 82.4067C252.885 77.9341 252.264 73.3822 249.851 69.5471C255.248 63.496 254.999 53.2728 250.886 46.5692Z" fill="#272525"/>
<path d="M40.161 70.042C42.603 70.306 45.672 70.438 49.17 70.438C52.404 70.438 56.199 70.24 58.707 69.976V74.365C56.397 74.563 52.338 74.761 49.17 74.761C45.738 74.761 42.867 74.596 40.161 74.398V70.042ZM42.933 84.001C42.636 85.189 42.372 86.245 42.372 87.367C42.372 89.446 44.418 90.997 49.17 90.997C53.592 90.997 57.816 90.502 60.753 89.677L60.786 94.33C57.882 94.99 53.922 95.419 49.302 95.419C41.778 95.419 37.95 92.911 37.95 88.357C37.95 86.476 38.379 84.859 38.61 83.605L42.933 84.001ZM85.041 69.514C84.678 69.943 84.348 70.504 83.985 71.065C82.335 73.408 80.025 77.632 78.408 80.569C79.629 79.843 80.916 79.546 82.17 79.546C84.645 79.546 86.13 81.097 86.262 83.869C86.328 85.321 86.262 87.961 86.427 89.347C86.559 90.634 87.45 91.162 88.539 91.162C91.41 91.162 93.192 87.433 94.116 83.341L97.713 86.245C95.964 91.921 92.928 95.683 87.846 95.683C84.183 95.683 82.5 93.472 82.335 91.096C82.236 89.314 82.236 86.641 82.137 85.288C82.038 84.133 81.411 83.44 80.223 83.44C77.979 83.44 76.098 85.75 74.943 88.423C74.052 90.337 72.93 94.033 72.435 95.782L67.782 94.198C70.191 87.598 76.956 74.134 78.738 70.966C79.134 70.108 79.761 69.019 80.355 67.633L85.041 69.514ZM113.751 70.933C117.81 71.494 124.41 71.329 127.941 70.9V75.157C123.915 75.553 117.909 75.553 113.784 75.157L113.751 70.933ZM116.391 85.024C116.127 86.146 115.995 86.938 115.995 87.796C115.995 89.281 117.282 90.172 120.648 90.172C123.585 90.172 126.027 89.908 128.898 89.281L128.997 93.736C126.852 94.165 124.179 94.396 120.45 94.396C114.774 94.396 112.035 92.35 112.035 88.984C112.035 87.664 112.233 86.377 112.629 84.694L116.391 85.024ZM108.669 68.722C108.438 69.415 108.009 71.098 107.877 71.692C107.415 73.87 106.26 80.47 106.26 83.77C106.26 84.43 106.293 85.255 106.392 85.915C106.887 84.793 107.415 83.671 107.91 82.549L109.956 84.166C108.999 86.938 107.91 90.502 107.58 92.251C107.481 92.746 107.382 93.472 107.382 93.802C107.415 94.165 107.415 94.726 107.448 95.188L103.653 95.419C102.993 93.175 102.366 89.149 102.366 84.661C102.366 79.678 103.356 74.134 103.719 71.56C103.851 70.669 104.016 69.415 104.049 68.359L108.669 68.722ZM146.916 67.699C146.586 68.887 146.388 70.009 146.124 71.065C145.596 73.705 144.606 78.556 143.616 81.625C146.289 80.173 148.863 79.579 151.833 79.579C157.146 79.579 160.71 82.384 160.71 86.641C160.71 94.033 153.549 96.739 142.857 95.584L141.702 91.327C148.962 92.482 156.255 91.624 156.255 86.74C156.255 84.793 154.539 83.11 151.305 83.11C147.51 83.11 144.144 84.496 142.197 87.004C141.834 87.466 141.57 87.862 141.273 88.423L137.379 87.07C139.821 82.252 141.669 74.233 142.098 70.834C142.263 69.448 142.296 68.59 142.23 67.501L146.916 67.699ZM135.399 71.56C137.544 71.923 140.184 72.187 142.23 72.187C146.454 72.187 152.724 71.692 158.136 70.537L158.235 74.497C154.044 75.19 147.048 75.982 142.263 75.982C139.755 75.982 137.379 75.85 135.432 75.652L135.399 71.56ZM177.87 73.738C179.784 73.936 181.665 74.035 183.678 74.035C187.704 74.035 191.829 73.705 195.261 72.979V77.071C191.796 77.599 187.638 77.863 183.678 77.896C181.731 77.896 179.85 77.83 177.903 77.698L177.87 73.738ZM190.443 68.194C190.344 68.821 190.278 69.613 190.245 70.306C190.179 71.395 190.113 73.672 190.113 76.048C190.113 82.12 190.641 86.41 190.641 89.545C190.641 93.01 188.925 95.518 184.173 95.518C179.586 95.518 176.748 93.637 176.748 90.172C176.748 86.806 179.586 84.496 184.107 84.496C190.311 84.496 194.304 87.598 196.878 89.974L194.634 93.439C190.839 89.908 187.506 87.697 183.777 87.697C181.896 87.697 180.609 88.456 180.609 89.71C180.609 91.063 181.929 91.657 183.711 91.657C185.724 91.657 186.417 90.601 186.417 88.654C186.417 86.377 185.988 80.833 185.988 76.081C185.988 73.573 185.955 71.362 185.922 70.372C185.922 69.844 185.823 68.821 185.724 68.194H190.443ZM174.339 68.524C174.075 69.184 173.679 70.9 173.547 71.494C173.052 73.705 171.963 80.965 171.963 84.265C171.963 84.892 171.996 85.75 172.095 86.41C172.557 85.255 173.118 84.133 173.58 83.011L175.626 84.628C174.702 87.367 173.613 90.7 173.25 92.515C173.151 92.977 173.052 93.703 173.085 94.033C173.085 94.396 173.085 94.957 173.118 95.419L169.389 95.683C168.729 93.406 168.069 89.611 168.069 85.156C168.069 80.173 169.059 73.936 169.455 71.395C169.587 70.471 169.719 69.184 169.752 68.161L174.339 68.524Z" fill="black"/>
</svg>
