<svg width="308" height="210" viewBox="0 0 308 210" fill="none" xmlns="http://www.w3.org/2000/svg">
<path d="M181.125 183.197C132.278 184.528 79.9872 182.444 31.2795 178.518C27.9542 178.251 24.355 177.854 21.9262 175.566C19.6382 173.411 18.9467 170.084 18.5818 166.963C16.1779 146.391 19.2445 123.752 18.6086 102.773C17.9344 80.512 17.3377 58.2494 16.8177 35.9849C16.7113 31.4471 16.7066 26.5665 19.2953 22.837C23.3111 17.0523 31.5333 16.5687 38.5755 16.6587C120.937 17.7084 203.299 18.759 285.66 19.8087C290.575 19.8719 295.868 20.0586 299.771 23.0448C302.554 25.1749 304.218 28.458 305.341 31.7785C308.128 40.0285 308.074 48.9325 307.897 57.6384C307.408 81.6804 306.206 105.708 304.293 129.678C303.337 141.663 302.226 153.637 300.892 165.585C299.681 176.423 292.481 178.943 282.115 179.702C268.024 180.735 253.86 180.768 239.765 179.8C239.142 184.305 239.665 190.946 244.847 197.987C248.878 203.462 254.134 204.665 257.205 205.367C219.743 211.037 197.247 208.114 181.125 183.197Z" fill="#272525"/>
<path d="M167.841 168.955C118.994 170.286 66.7041 168.202 17.9964 164.277C14.6711 164.009 11.0719 163.612 8.64311 161.324C6.35507 159.169 5.66359 155.843 5.2987 152.722C2.89477 132.149 5.96143 109.51 5.32549 88.5312C4.65124 66.2705 4.05362 44.0078 3.53357 21.7433C3.42822 17.2055 3.42248 12.3249 6.01125 8.5955C10.028 2.81076 18.2492 2.32708 25.2924 2.41711C107.654 3.46679 190.016 4.51649 272.377 5.56713C277.291 5.63034 282.585 5.81709 286.487 8.80332C289.27 10.9333 290.935 14.2165 292.058 17.5369C294.845 25.7859 294.791 34.6909 294.614 43.3968C294.125 67.4389 292.922 91.4657 291.009 115.436C290.053 127.42 288.942 139.396 287.608 151.343C286.398 162.18 279.196 164.7 268.832 165.46C254.741 166.493 240.576 166.526 226.48 165.558C225.732 174.27 227.696 184.951 232.763 192.075C237.832 199.201 245.486 204.442 253.96 206.593C216.499 212.263 183.964 193.873 167.841 168.955Z" fill="#1E8DD2"/>
<path d="M290.965 50.03C290.262 77.4864 288.623 104.918 286.081 132.265C285.456 138.982 284.975 145.772 283.999 152.448C283.707 154.449 283.165 156.357 282.093 158.087C281.745 158.651 281.308 159.175 280.642 159.82C280.612 159.85 280.524 159.927 280.466 159.978C280.356 160.066 280.247 160.154 280.135 160.237C279.787 160.495 279.42 160.731 279.047 160.951C278.932 160.996 278.313 161.309 278.18 161.368C278.033 161.433 277.3 161.707 277.243 161.74C276.36 162.023 275.465 162.26 274.558 162.448C273.8 162.605 273.196 162.702 271.917 162.85C270.636 162.998 269.349 163.095 268.062 163.183C261.205 163.659 254.332 163.898 247.459 163.901C240.882 163.904 234.303 163.65 227.742 163.206C226.226 163.102 223.138 163.844 222.976 165.845C222.233 175.084 223.944 185.206 229.196 192.998C232.624 198.087 237.409 202.249 242.832 205.187C233.38 205.361 223.952 204.013 214.9 201.025C203.342 197.21 192.517 190.867 183.637 182.526C178.935 178.108 174.756 173.155 171.216 167.761C171.139 167.603 171.032 167.465 170.904 167.345C170.266 166.577 169.054 166.387 167.828 166.606C141.493 167.306 115.139 167.021 88.8143 166.047C75.45 165.551 62.0925 164.876 48.7455 164.039C42.1639 163.625 35.5852 163.173 29.0084 162.681C25.8479 162.445 22.6864 162.201 19.5268 161.945C17.0462 161.744 14.3349 161.625 12.2288 160.142C10.0825 158.631 9.38815 155.836 8.99069 153.389C8.49649 150.342 8.2944 147.227 8.11914 144.147C7.74849 137.65 7.8309 131.13 8.01766 124.627C8.39501 111.519 9.13434 98.458 8.74167 85.3398C8.32313 71.4028 7.93526 57.4649 7.57802 43.5259C7.39893 36.5565 7.22846 29.588 7.06469 22.6176C6.95072 17.7542 6.44407 11.2368 10.3909 7.72573C11.2462 6.96529 11.863 6.65401 12.7651 6.2556C13.7104 5.83802 14.5714 5.59669 15.8874 5.32087C17.709 4.93777 20.5851 4.79124 22.8588 4.77017C29.1856 4.71079 36.0889 4.92338 42.6351 5.0067C56.4907 5.18388 70.3472 5.36011 84.2028 5.53729C112.013 5.89166 139.822 6.24603 167.631 6.60039C195.537 6.95667 223.444 7.31198 251.349 7.66826C258.246 7.75637 265.145 7.80713 272.042 7.93355C277.391 8.0322 282.757 8.48521 286.075 13.2212C289.458 18.052 290.433 24.6604 290.909 30.4011C291.451 36.9166 291.131 43.5039 290.965 50.03ZM297.942 29.6579C297.515 23.447 296.404 16.9085 293.212 11.4647C290.026 6.03246 284.33 3.88039 278.303 3.39099C271.564 2.84316 264.701 3.09984 257.942 3.01364C250.772 2.92266 243.601 2.83073 236.43 2.73974C221.994 2.55586 207.557 2.37101 193.118 2.18713C164.34 1.82031 135.561 1.45348 106.783 1.08666C92.4432 0.903736 78.102 0.72081 63.7618 0.537882C56.4945 0.444982 49.2272 0.353048 41.9608 0.260148C35.2289 0.173951 28.4481 -0.162189 21.7209 0.0954428C16.2561 0.30423 10.274 1.31848 5.89623 4.84391C0.978247 8.8032 -0.0675823 14.6071 0.00329025 20.613C0.171852 34.8297 0.689008 49.0531 1.08168 63.2659C1.46861 77.292 2.16299 91.3219 1.73105 105.354C1.31156 118.971 0.380645 132.599 1.18227 146.22C1.50982 151.791 1.34411 159.218 5.92976 163.213C8.2312 165.218 11.2471 165.984 14.2123 166.376C17.3747 166.794 20.588 166.939 23.7686 167.182C37.3407 168.219 50.9262 169.091 64.5194 169.789C92.265 171.213 120.054 171.919 147.835 171.667C153.651 171.615 159.467 171.508 165.282 171.363C179.547 192.617 203.528 206.426 228.831 209.384C237.048 210.345 245.406 210.168 253.586 208.951C254.928 208.752 256.572 208.235 257.25 206.921C257.802 205.852 257.158 204.698 256.014 204.401C247.76 202.25 240.379 197.184 235.596 190.088C231.384 183.837 229.707 175.758 229.844 168.185C242.609 168.862 255.424 168.769 268.173 167.84C272.878 167.496 277.852 166.871 282.093 164.66C286.172 162.534 289.005 159.232 290.357 154.828C291.207 152.056 291.334 149.085 291.64 146.219C292.015 142.707 292.37 139.195 292.71 135.681C293.389 128.652 294 121.614 294.558 114.574C295.685 100.383 296.561 86.1721 297.188 71.9506C297.506 64.7427 297.759 57.5329 297.95 50.322C298.13 43.4426 298.414 36.5306 297.942 29.6579Z" fill="#272525"/>
<mask id="path-4-outside-1_8_182" maskUnits="userSpaceOnUse" x="84" y="62.0001" width="100" height="44" fill="black">
<rect fill="white" x="84" y="62.0001" width="100" height="44"/>
<path d="M84.758 74.6401H110.886V79.0101H106.01V105H100.582V90.2341H93.958C93.406 90.2341 93.0073 90.3874 92.762 90.6941C92.5167 90.9701 92.394 91.4761 92.394 92.2121C92.394 93.1014 92.5473 94.1901 92.854 95.4781H88.53C87.5487 93.7301 87.058 91.8747 87.058 89.9121C87.058 88.6854 87.4413 87.7194 88.208 87.0141C89.0053 86.2781 90.1707 85.9101 91.704 85.9101H100.582V79.0101H84.758V74.6401ZM108.387 79.0101V74.6401H137.551V79.0101H132.675V105H127.385V92.6721H119.243V98.5141H114.643L113.171 95.2481C112.312 93.3161 111.883 91.9207 111.883 91.0621C111.883 89.7434 112.558 88.9154 113.907 88.5781V79.0101H108.387ZM127.385 79.0101H119.243V88.3021H127.385V79.0101ZM172.929 83.5641V79.0101H150.251V84.7601C150.251 86.4774 149.898 87.9187 149.193 89.0841H157.887C159.696 85.4041 163.391 83.5641 168.973 83.5641H172.929ZM183.187 74.6401V79.0101H178.311V105H172.929V88.0261H169.249C164.557 88.0261 162.211 90.0654 162.211 94.1441C162.211 96.1067 162.671 97.6401 163.591 98.7441C164.511 99.8481 165.891 100.4 167.731 100.4C168.129 100.4 168.421 100.385 168.605 100.354V104.862C167.93 104.923 167.378 104.954 166.949 104.954C163.79 104.954 161.306 103.957 159.497 101.964C157.687 99.9401 156.783 97.3181 156.783 94.0981V93.4541H150.619C148.227 93.4541 146.065 93.3161 144.133 93.0401L152.643 105H146.157L137.371 92.3961V88.5321H140.545C143.427 88.5321 144.869 87.2441 144.869 84.6681V79.0101H135.07V74.6401H183.187ZM162.679 67.9701V63.4161C163.967 63.2014 165.01 63.0941 165.807 63.0941C169.15 63.1247 171.71 64.5201 173.489 67.2801L178.503 74.9621H172.707L169.119 69.6721C168.23 68.2614 166.988 67.5561 165.393 67.5561C164.534 67.5561 163.63 67.6941 162.679 67.9701Z"/>
</mask>
<path d="M84.758 74.6401H110.886V79.0101H106.01V105H100.582V90.2341H93.958C93.406 90.2341 93.0073 90.3874 92.762 90.6941C92.5167 90.9701 92.394 91.4761 92.394 92.2121C92.394 93.1014 92.5473 94.1901 92.854 95.4781H88.53C87.5487 93.7301 87.058 91.8747 87.058 89.9121C87.058 88.6854 87.4413 87.7194 88.208 87.0141C89.0053 86.2781 90.1707 85.9101 91.704 85.9101H100.582V79.0101H84.758V74.6401ZM108.387 79.0101V74.6401H137.551V79.0101H132.675V105H127.385V92.6721H119.243V98.5141H114.643L113.171 95.2481C112.312 93.3161 111.883 91.9207 111.883 91.0621C111.883 89.7434 112.558 88.9154 113.907 88.5781V79.0101H108.387ZM127.385 79.0101H119.243V88.3021H127.385V79.0101ZM172.929 83.5641V79.0101H150.251V84.7601C150.251 86.4774 149.898 87.9187 149.193 89.0841H157.887C159.696 85.4041 163.391 83.5641 168.973 83.5641H172.929ZM183.187 74.6401V79.0101H178.311V105H172.929V88.0261H169.249C164.557 88.0261 162.211 90.0654 162.211 94.1441C162.211 96.1067 162.671 97.6401 163.591 98.7441C164.511 99.8481 165.891 100.4 167.731 100.4C168.129 100.4 168.421 100.385 168.605 100.354V104.862C167.93 104.923 167.378 104.954 166.949 104.954C163.79 104.954 161.306 103.957 159.497 101.964C157.687 99.9401 156.783 97.3181 156.783 94.0981V93.4541H150.619C148.227 93.4541 146.065 93.3161 144.133 93.0401L152.643 105H146.157L137.371 92.3961V88.5321H140.545C143.427 88.5321 144.869 87.2441 144.869 84.6681V79.0101H135.07V74.6401H183.187ZM162.679 67.9701V63.4161C163.967 63.2014 165.01 63.0941 165.807 63.0941C169.15 63.1247 171.71 64.5201 173.489 67.2801L178.503 74.9621H172.707L169.119 69.6721C168.23 68.2614 166.988 67.5561 165.393 67.5561C164.534 67.5561 163.63 67.6941 162.679 67.9701Z" fill="white"/>
<path d="M84.758 74.6401V74.1401H84.258V74.6401H84.758ZM110.886 74.6401H111.386V74.1401H110.886V74.6401ZM110.886 79.0101V79.5101H111.386V79.0101H110.886ZM106.01 79.0101V78.5101H105.51V79.0101H106.01ZM106.01 105V105.5H106.51V105H106.01ZM100.582 105H100.082V105.5H100.582V105ZM100.582 90.2341H101.082V89.7341H100.582V90.2341ZM92.762 90.6941L93.1357 91.0262L93.1443 91.0165L93.1524 91.0064L92.762 90.6941ZM92.854 95.4781V95.9781H93.487L93.3404 95.3623L92.854 95.4781ZM88.53 95.4781L88.094 95.7228L88.2373 95.9781H88.53V95.4781ZM88.208 87.0141L88.5465 87.382L88.5471 87.3815L88.208 87.0141ZM100.582 85.9101V86.4101H101.082V85.9101H100.582ZM100.582 79.0101H101.082V78.5101H100.582V79.0101ZM84.758 79.0101H84.258V79.5101H84.758V79.0101ZM84.758 75.1401H110.886V74.1401H84.758V75.1401ZM110.386 74.6401V79.0101H111.386V74.6401H110.386ZM110.886 78.5101H106.01V79.5101H110.886V78.5101ZM105.51 79.0101V105H106.51V79.0101H105.51ZM106.01 104.5H100.582V105.5H106.01V104.5ZM101.082 105V90.2341H100.082V105H101.082ZM100.582 89.7341H93.958V90.7341H100.582V89.7341ZM93.958 89.7341C93.3189 89.7341 92.746 89.9137 92.3716 90.3817L93.1524 91.0064C93.2687 90.8611 93.4931 90.7341 93.958 90.7341V89.7341ZM92.3883 90.3619C92.0121 90.7851 91.894 91.4576 91.894 92.2121H92.894C92.894 91.4945 93.0212 91.155 93.1357 91.0262L92.3883 90.3619ZM91.894 92.2121C91.894 93.1543 92.0558 94.2845 92.3676 95.5939L93.3404 95.3623C93.0388 94.0957 92.894 93.0484 92.894 92.2121H91.894ZM92.854 94.9781H88.53V95.9781H92.854V94.9781ZM88.966 95.2333C88.0257 93.5584 87.558 91.7871 87.558 89.9121H86.558C86.558 91.9624 87.0716 93.9017 88.094 95.7228L88.966 95.2333ZM87.558 89.9121C87.558 88.7981 87.9011 87.9758 88.5465 87.382L87.8695 86.6461C86.9815 87.463 86.558 88.5726 86.558 89.9121H87.558ZM88.5471 87.3815C89.22 86.7604 90.2445 86.4101 91.704 86.4101V85.4101C90.0969 85.4101 88.7907 85.7958 87.8689 86.6467L88.5471 87.3815ZM91.704 86.4101H100.582V85.4101H91.704V86.4101ZM101.082 85.9101V79.0101H100.082V85.9101H101.082ZM100.582 78.5101H84.758V79.5101H100.582V78.5101ZM85.258 79.0101V74.6401H84.258V79.0101H85.258ZM108.387 79.0101H107.887V79.5101H108.387V79.0101ZM108.387 74.6401V74.1401H107.887V74.6401H108.387ZM137.551 74.6401H138.051V74.1401H137.551V74.6401ZM137.551 79.0101V79.5101H138.051V79.0101H137.551ZM132.675 79.0101V78.5101H132.175V79.0101H132.675ZM132.675 105V105.5H133.175V105H132.675ZM127.385 105H126.885V105.5H127.385V105ZM127.385 92.6721H127.885V92.1721H127.385V92.6721ZM119.243 92.6721V92.1721H118.743V92.6721H119.243ZM119.243 98.5141V99.0141H119.743V98.5141H119.243ZM114.643 98.5141L114.187 98.7195L114.32 99.0141H114.643V98.5141ZM113.171 95.2481L112.714 95.4511L112.715 95.4535L113.171 95.2481ZM113.907 88.5781L114.028 89.0631L114.407 88.9684V88.5781H113.907ZM113.907 79.0101H114.407V78.5101H113.907V79.0101ZM127.385 79.0101H127.885V78.5101H127.385V79.0101ZM119.243 79.0101V78.5101H118.743V79.0101H119.243ZM119.243 88.3021H118.743V88.8021H119.243V88.3021ZM127.385 88.3021V88.8021H127.885V88.3021H127.385ZM108.887 79.0101V74.6401H107.887V79.0101H108.887ZM108.387 75.1401H137.551V74.1401H108.387V75.1401ZM137.051 74.6401V79.0101H138.051V74.6401H137.051ZM137.551 78.5101H132.675V79.5101H137.551V78.5101ZM132.175 79.0101V105H133.175V79.0101H132.175ZM132.675 104.5H127.385V105.5H132.675V104.5ZM127.885 105V92.6721H126.885V105H127.885ZM127.385 92.1721H119.243V93.1721H127.385V92.1721ZM118.743 92.6721V98.5141H119.743V92.6721H118.743ZM119.243 98.0141H114.643V99.0141H119.243V98.0141ZM115.099 98.3086L113.627 95.0426L112.715 95.4535L114.187 98.7195L115.099 98.3086ZM113.628 95.045C112.768 93.1096 112.383 91.8028 112.383 91.0621H111.383C111.383 92.0387 111.857 93.5225 112.714 95.4511L113.628 95.045ZM112.383 91.0621C112.383 90.49 112.528 90.0733 112.777 89.7679C113.028 89.4598 113.427 89.2135 114.028 89.0631L113.786 88.093C113.038 88.2799 112.425 88.6163 112.001 89.1362C111.575 89.6588 111.383 90.3155 111.383 91.0621H112.383ZM114.407 88.5781V79.0101H113.407V88.5781H114.407ZM113.907 78.5101H108.387V79.5101H113.907V78.5101ZM127.385 78.5101H119.243V79.5101H127.385V78.5101ZM118.743 79.0101V88.3021H119.743V79.0101H118.743ZM119.243 88.8021H127.385V87.8021H119.243V88.8021ZM127.885 88.3021V79.0101H126.885V88.3021H127.885ZM172.929 83.5641V84.0641H173.429V83.5641H172.929ZM172.929 79.0101H173.429V78.5101H172.929V79.0101ZM150.251 79.0101V78.5101H149.751V79.0101H150.251ZM149.193 89.0841L148.765 88.8252L148.305 89.5841H149.193V89.0841ZM157.887 89.0841V89.5841H158.198L158.335 89.3047L157.887 89.0841ZM183.187 74.6401H183.687V74.1401H183.187V74.6401ZM183.187 79.0101V79.5101H183.687V79.0101H183.187ZM178.311 79.0101V78.5101H177.811V79.0101H178.311ZM178.311 105V105.5H178.811V105H178.311ZM172.929 105H172.429V105.5H172.929V105ZM172.929 88.0261H173.429V87.5261H172.929V88.0261ZM163.591 98.7441L163.975 98.424L163.975 98.424L163.591 98.7441ZM168.605 100.354H169.105V99.7638L168.522 99.8609L168.605 100.354ZM168.605 104.862L168.65 105.36L169.105 105.319V104.862H168.605ZM159.497 101.964L159.124 102.297L159.126 102.3L159.497 101.964ZM156.783 93.4541H157.283V92.9541H156.783V93.4541ZM144.133 93.0401L144.203 92.5451L143.049 92.3803L143.725 93.3299L144.133 93.0401ZM152.643 105V105.5H153.612L153.05 104.71L152.643 105ZM146.157 105L145.746 105.286L145.896 105.5H146.157V105ZM137.371 92.3961H136.871V92.5531L136.96 92.682L137.371 92.3961ZM137.371 88.5321V88.0321H136.871V88.5321H137.371ZM144.869 79.0101H145.369V78.5101H144.869V79.0101ZM135.07 79.0101H134.57V79.5101H135.07V79.0101ZM135.07 74.6401V74.1401H134.57V74.6401H135.07ZM173.429 83.5641V79.0101H172.429V83.5641H173.429ZM172.929 78.5101H150.251V79.5101H172.929V78.5101ZM149.751 79.0101V84.7601H150.751V79.0101H149.751ZM149.751 84.7601C149.751 86.4097 149.412 87.7559 148.765 88.8252L149.62 89.343C150.384 88.0816 150.751 86.5451 150.751 84.7601H149.751ZM149.193 89.5841H157.887V88.5841H149.193V89.5841ZM158.335 89.3047C160.03 85.8574 163.502 84.0641 168.973 84.0641V83.0641C163.281 83.0641 159.362 84.9507 157.438 88.8634L158.335 89.3047ZM168.973 84.0641H172.929V83.0641H168.973V84.0641ZM182.687 74.6401V79.0101H183.687V74.6401H182.687ZM183.187 78.5101H178.311V79.5101H183.187V78.5101ZM177.811 79.0101V105H178.811V79.0101H177.811ZM178.311 104.5H172.929V105.5H178.311V104.5ZM173.429 105V88.0261H172.429V105H173.429ZM172.929 87.5261H169.249V88.5261H172.929V87.5261ZM169.249 87.5261C166.841 87.5261 164.942 88.0477 163.642 89.1782C162.328 90.3204 161.711 92.008 161.711 94.1441H162.711C162.711 92.2015 163.266 90.8301 164.298 89.9329C165.344 89.0241 166.964 88.5261 169.249 88.5261V87.5261ZM161.711 94.1441C161.711 96.181 162.188 97.8422 163.206 99.0642L163.975 98.424C163.153 97.4379 162.711 96.0324 162.711 94.1441H161.711ZM163.206 99.0642C164.247 100.313 165.787 100.9 167.731 100.9V99.9001C165.994 99.9001 164.774 99.3835 163.975 98.424L163.206 99.0642ZM167.731 100.9C168.133 100.9 168.459 100.885 168.687 100.847L168.522 99.8609C168.382 99.8843 168.125 99.9001 167.731 99.9001V100.9ZM168.105 100.354V104.862H169.105V100.354H168.105ZM168.559 104.364C167.892 104.425 167.357 104.454 166.949 104.454V105.454C167.399 105.454 167.968 105.422 168.65 105.36L168.559 104.364ZM166.949 104.454C163.904 104.454 161.565 103.499 159.867 101.628L159.126 102.3C161.047 104.416 163.676 105.454 166.949 105.454V104.454ZM159.869 101.631C158.157 99.715 157.283 97.2193 157.283 94.0981H156.283C156.283 97.4168 157.218 100.165 159.124 102.297L159.869 101.631ZM157.283 94.0981V93.4541H156.283V94.0981H157.283ZM156.783 92.9541H150.619V93.9541H156.783V92.9541ZM150.619 92.9541C148.245 92.9541 146.107 92.8171 144.203 92.5451L144.062 93.535C146.022 93.815 148.208 93.9541 150.619 93.9541V92.9541ZM143.725 93.3299L152.235 105.29L153.05 104.71L144.54 92.7502L143.725 93.3299ZM152.643 104.5H146.157V105.5H152.643V104.5ZM146.567 104.714L137.781 92.1101L136.96 92.682L145.746 105.286L146.567 104.714ZM137.871 92.3961V88.5321H136.871V92.3961H137.871ZM137.371 89.0321H140.545V88.0321H137.371V89.0321ZM140.545 89.0321C142.05 89.0321 143.272 88.697 144.121 87.9389C144.98 87.1712 145.369 86.0486 145.369 84.6681H144.369C144.369 85.8635 144.037 86.6729 143.454 87.1932C142.861 87.7232 141.922 88.0321 140.545 88.0321V89.0321ZM145.369 84.6681V79.0101H144.369V84.6681H145.369ZM144.869 78.5101H135.07V79.5101H144.869V78.5101ZM135.57 79.0101V74.6401H134.57V79.0101H135.57ZM135.07 75.1401H183.187V74.1401H135.07V75.1401ZM162.679 67.9701H162.179V68.6359L162.819 68.4502L162.679 67.9701ZM162.679 63.4161L162.597 62.9229L162.179 62.9925V63.4161H162.679ZM165.807 63.0941L165.812 62.5941H165.807V63.0941ZM173.489 67.2801L173.069 67.5509L173.07 67.5533L173.489 67.2801ZM178.503 74.9621V75.4621H179.427L178.922 74.6888L178.503 74.9621ZM172.707 74.9621L172.293 75.2427L172.442 75.4621H172.707V74.9621ZM169.119 69.6721L168.696 69.9387L168.701 69.9458L168.705 69.9527L169.119 69.6721ZM163.179 67.9701V63.4161H162.179V67.9701H163.179ZM162.761 63.9093C164.037 63.6967 165.049 63.5941 165.807 63.5941V62.5941C164.97 62.5941 163.897 62.7061 162.597 62.9229L162.761 63.9093ZM165.803 63.594C168.981 63.6232 171.383 64.9354 173.069 67.5509L173.909 67.0092C172.038 64.1047 169.319 62.6263 165.812 62.5941L165.803 63.594ZM173.07 67.5533L178.084 75.2353L178.922 74.6888L173.908 67.0068L173.07 67.5533ZM178.503 74.4621H172.707V75.4621H178.503V74.4621ZM173.121 74.6814L169.533 69.3914L168.705 69.9527L172.293 75.2427L173.121 74.6814ZM169.542 69.4054C168.566 67.8575 167.169 67.0561 165.393 67.0561V68.0561C166.807 68.0561 167.893 68.6653 168.696 69.9387L169.542 69.4054ZM165.393 67.0561C164.481 67.0561 163.529 67.2027 162.54 67.4899L162.819 68.4502C163.731 68.1854 164.588 68.0561 165.393 68.0561V67.0561Z" fill="black" mask="url(#path-4-outside-1_8_182)"/>
</svg>
