<svg width="185" height="139" viewBox="0 0 185 139" fill="none" xmlns="http://www.w3.org/2000/svg">
<path d="M34.1065 118.766C30.9895 126.59 23.8973 133.859 14.9088 137.36C23.8458 138.178 34.0689 137.513 42.3912 134.69C46.6187 133.255 51.8359 131.905 55.2625 128.498C70.7167 132.985 91.8984 135.927 106.822 132.552C123.099 128.872 138.955 119.5 149.503 108.749C160.63 97.4087 167.186 82.8724 166.814 68.2523C166.293 47.7835 151.82 28.2126 130.792 17.5067C96.6726 0.132933 38.1445 2.42862 16.6347 42.4086C5.03034 63.9766 6.38446 90.8526 23.9547 110.008C26.8908 113.208 30.3121 116.136 34.1065 118.766Z" fill="#272525"/>
<path d="M32.4637 117.101C30.1826 125.121 23.8826 132.876 15.2969 137.016C24.286 137.182 34.4002 135.779 42.3937 132.363C46.4535 130.628 51.5082 128.903 54.5632 125.262C70.4313 128.61 91.8415 130.006 106.353 125.562C122.18 120.715 136.988 110.23 146.365 98.7543C156.254 86.6502 161.254 71.6948 159.345 57.158C156.671 36.8036 140.193 18.356 118.116 9.21705C82.2984 -5.61451 24.2365 0.916465 7.01816 42.2991C-2.27072 64.6292 1.90792 91.3046 21.4278 109.112C24.6901 112.088 28.4072 114.756 32.4637 117.101Z" fill="#F8DBFF"/>
<path d="M157.103 68.8836C156.207 76.2062 153.666 83.3042 149.752 89.9354C145.974 96.3359 140.759 102.185 134.768 107.316C128.833 112.399 121.776 116.936 114.193 120.371C110.742 121.934 106.876 123.376 102.982 124.352C99.1782 125.306 95.6868 125.787 91.7452 126.092C83.2552 126.747 74.7375 126.337 66.4033 125.281C62.4967 124.785 58.6185 124.14 54.7871 123.335C54.0344 123.177 53.1524 123.403 52.6948 123.938C49.8565 127.258 45.1417 128.975 40.8614 130.728C35.7934 132.803 30.2197 134.036 24.6492 134.622C24.1026 134.679 23.5553 134.723 23.0073 134.769C28.7276 130.297 32.7979 124.27 34.6076 118.004C34.6162 117.975 34.6182 117.946 34.6254 117.916C34.9179 117.122 34.5951 116.108 33.7817 115.637C33.7685 115.629 33.7559 115.62 33.7427 115.613C33.6879 115.575 33.6291 115.541 33.5704 115.507C26.4953 111.367 20.8113 106.448 16.1467 100.418C13.9897 97.6284 12.4045 95.1262 10.7618 91.9237C9.98011 90.3994 9.27103 88.85 8.63456 87.2797C7.99611 85.7045 7.5379 84.4132 7.10941 83.0149C6.12301 79.7933 5.4258 76.5114 5.00919 73.2065C4.58994 69.8725 4.47636 67.03 4.61633 63.7246C4.89693 57.1087 6.20818 50.7641 8.6088 44.5783C9.71536 41.7347 11.0437 38.9459 12.6177 36.2503C13.4008 34.9079 13.9613 34.0368 14.7279 32.9301C15.5558 31.7356 16.4346 30.5686 17.3636 29.429C19.166 27.2155 21.1566 25.1115 23.3209 23.1336C23.8062 22.6898 24.3013 22.2515 24.8044 21.8242C25.0777 21.5886 25.3551 21.3585 25.631 21.1283C25.6475 21.1119 25.6561 21.1064 25.6693 21.0955C25.843 20.953 26.0179 20.8106 26.1929 20.6736C27.316 19.7805 28.4766 18.9258 29.671 18.0985C31.9832 16.5041 34.4228 15.0303 36.9647 13.6989C38.2535 13.025 39.568 12.3784 40.9056 11.7757C41.2397 11.6223 41.5751 11.4744 41.9112 11.3264C42.0201 11.2771 42.1297 11.2333 42.2393 11.184C42.2915 11.1621 42.5305 11.058 42.5727 11.0416C43.2508 10.7567 43.9348 10.4827 44.6227 10.2197C50.0631 8.11581 55.8006 6.54879 61.6661 5.50231C62.3448 5.38178 63.0249 5.27219 63.7069 5.16261C63.8304 5.14069 63.9532 5.12427 64.0767 5.10236C64.1354 5.09688 64.3982 5.05851 64.4418 5.05303C64.8769 4.98728 65.3119 4.92702 65.7477 4.87223C67.1791 4.68047 68.6164 4.52157 70.0571 4.39555C73.0552 4.1216 76.0699 3.97915 79.0852 3.95723C82.0173 3.93532 84.9514 4.02847 87.8729 4.24215C87.9878 4.24763 88.102 4.25861 88.2176 4.26409C88.2737 4.26957 88.5352 4.29146 88.5853 4.29694C88.9544 4.32433 89.3241 4.3572 89.6932 4.39555C90.4307 4.4613 91.1662 4.53804 91.9004 4.62022C93.3615 4.79007 94.8173 4.9873 96.2672 5.21194C99.0686 5.65026 101.846 6.19267 104.583 6.85563C105.959 7.18437 107.326 7.54599 108.68 7.93499C108.848 7.98431 109.016 8.03363 109.184 8.08294C109.229 8.0939 109.372 8.13773 109.46 8.16512C109.678 8.23087 109.896 8.29657 110.114 8.3678C110.829 8.59244 111.54 8.82257 112.248 9.06364C115.109 10.0389 117.898 11.1512 120.592 12.4113C121.38 12.7784 122.16 13.1619 122.932 13.5509C123.352 13.7701 123.771 13.9838 124.187 14.2084C124.395 14.318 124.602 14.4276 124.808 14.5371C124.929 14.6029 125.05 14.6741 125.171 14.7399C125.205 14.7563 125.252 14.7837 125.311 14.8166C126.942 15.7425 128.538 16.7068 130.083 17.7314C133.111 19.7312 135.946 21.9283 138.588 24.2733C138.639 24.3226 138.667 24.3445 138.695 24.3719C138.724 24.3993 138.754 24.4267 138.807 24.476C138.972 24.6294 139.138 24.7773 139.302 24.9308C139.575 25.1883 139.846 25.4458 140.115 25.7033C140.813 26.3772 141.494 27.0621 142.157 27.7579C143.331 28.9852 144.45 30.2508 145.511 31.5493C147.855 34.4203 149.416 36.6941 151.138 39.7623C152.75 42.6387 154.095 45.6193 155.127 48.6711C155.162 48.7807 155.238 49.0108 155.238 49.0108C155.302 49.2081 155.362 49.4053 155.423 49.6025C155.544 49.997 155.66 50.397 155.77 50.7915C155.992 51.5859 156.192 52.3859 156.371 53.1913C156.738 54.835 157.015 56.4951 157.2 58.1651C157.595 61.7281 157.547 65.2609 157.103 68.8836ZM161.689 57.7826C160.112 44.2003 152.496 31.4507 141.392 21.4954C131.587 12.7017 119.031 6.40089 105.203 3.04229C93.5846 0.220621 81.1768 -0.639577 69.1479 0.467175C56.6919 1.6068 44.5066 4.85582 33.9025 10.4553C22.6507 16.3945 13.7534 24.9417 8.04957 34.9299C1.18178 46.9507 -1.22543 60.7939 0.575701 73.9757C2.45606 87.7361 9.25385 100.962 20.7024 111.109C23.474 113.565 26.5514 115.767 29.8189 117.756C27.2645 125.029 21.7436 131.506 13.8471 135.351C12.9914 135.767 12.8303 136.906 13.208 137.595C13.6589 138.419 14.5536 138.97 15.6575 138.989C21.7369 139.09 27.8587 138.519 33.7434 137.238C39.2273 136.044 44.4366 134.002 49.3454 131.666C51.6952 130.548 53.8931 129.174 55.6296 127.444C63.728 129.069 72.0484 130.028 80.3713 130.281C88.7741 130.537 97.4622 130.087 105.517 127.952C113.875 125.737 121.717 121.859 128.599 117.392C135.648 112.816 141.991 107.39 147.181 101.335C157.929 88.7952 163.474 73.1604 161.689 57.7826Z" fill="#272525"/>
<path d="M156.676 20.0819C164.47 14.2961 172.265 8.51576 180.06 2.72997C180.934 2.08345 179.715 1.38759 179.01 1.24514C177.853 1.0205 176.563 1.24514 175.679 1.90262C167.884 7.68293 160.09 13.4687 152.295 19.2545C151.421 19.901 152.64 20.5969 153.346 20.7393C154.502 20.964 155.792 20.7393 156.676 20.0819Z" fill="#272525"/>
<path d="M162.699 31.2864C169.879 29.5221 176.933 27.4182 183.827 24.991C186.505 24.0486 184.098 20.4819 181.579 21.3694C174.686 23.7966 167.631 25.9005 160.451 27.6647C159.247 27.9606 159.048 29.3906 159.581 30.1796C160.238 31.1439 161.416 31.6042 162.699 31.2864Z" fill="#272525"/>
<path d="M59.3017 47.638C58.757 47.638 58.2694 47.7457 57.8387 47.961C57.4207 48.1763 57.066 48.4867 56.7747 48.892C56.4834 49.2847 56.2617 49.766 56.1097 50.336C55.9704 50.906 55.9007 51.5457 55.9007 52.255C55.9007 53.2177 56.0147 54.041 56.2427 54.725C56.4834 55.3963 56.857 55.9093 57.3637 56.264C57.8704 56.6187 58.5164 56.796 59.3017 56.796C59.859 56.796 60.41 56.7327 60.9547 56.606C61.512 56.4793 62.1137 56.302 62.7597 56.074V58.487C62.1644 58.7277 61.5754 58.905 60.9927 59.019C60.41 59.133 59.7577 59.19 59.0357 59.19C57.6424 59.19 56.4897 58.905 55.5777 58.335C54.6784 57.7523 54.0134 56.9417 53.5827 55.903C53.152 54.8517 52.9367 53.6293 52.9367 52.236C52.9367 51.21 53.076 50.2727 53.3547 49.424C53.6334 48.5627 54.0387 47.8217 54.5707 47.201C55.1154 46.5803 55.7804 46.099 56.5657 45.757C57.3637 45.415 58.2757 45.244 59.3017 45.244C59.973 45.244 60.6444 45.3327 61.3157 45.51C61.9997 45.6747 62.652 45.9027 63.2727 46.194L62.3417 48.531C61.835 48.2903 61.322 48.0813 60.8027 47.904C60.296 47.7267 59.7957 47.638 59.3017 47.638ZM74.7053 59H71.8743V50.754H69.2713C69.1447 52.274 68.9863 53.5723 68.7963 54.649C68.619 55.713 68.391 56.5807 68.1123 57.252C67.8463 57.9233 67.5043 58.4173 67.0863 58.734C66.6683 59.038 66.1553 59.19 65.5473 59.19C65.218 59.19 64.9203 59.1647 64.6543 59.114C64.3883 59.0633 64.1477 58.9873 63.9323 58.886V56.625C64.0717 56.6757 64.2173 56.72 64.3693 56.758C64.5213 56.796 64.6797 56.815 64.8443 56.815C65.0217 56.815 65.1863 56.7453 65.3383 56.606C65.503 56.4667 65.655 56.2197 65.7943 55.865C65.9463 55.5103 66.0857 55.0227 66.2123 54.402C66.339 53.7813 66.453 53.0023 66.5543 52.065C66.6683 51.115 66.7697 49.9687 66.8583 48.626H74.7053V59ZM81.9164 48.417C83.3098 48.417 84.3738 48.721 85.1084 49.329C85.8558 49.9243 86.2294 50.8427 86.2294 52.084V59H84.2534L83.7024 57.594H83.6264C83.3351 57.9613 83.0311 58.2653 82.7144 58.506C82.4104 58.7467 82.0558 58.9177 81.6504 59.019C81.2578 59.133 80.7701 59.19 80.1874 59.19C79.5794 59.19 79.0284 59.076 78.5344 58.848C78.0531 58.6073 77.6731 58.2463 77.3944 57.765C77.1158 57.271 76.9764 56.6503 76.9764 55.903C76.9764 54.801 77.3628 53.9903 78.1354 53.471C78.9081 52.939 80.0671 52.6477 81.6124 52.597L83.4174 52.54V52.084C83.4174 51.5393 83.2718 51.1403 82.9804 50.887C82.7018 50.6337 82.3091 50.507 81.8024 50.507C81.2958 50.507 80.8018 50.583 80.3204 50.735C79.8391 50.8743 79.3578 51.0517 78.8764 51.267L77.9454 49.348C78.5028 49.0567 79.1171 48.8287 79.7884 48.664C80.4724 48.4993 81.1818 48.417 81.9164 48.417ZM82.3154 54.231C81.4034 54.2563 80.7701 54.421 80.4154 54.725C80.0608 55.029 79.8834 55.428 79.8834 55.922C79.8834 56.3527 80.0101 56.663 80.2634 56.853C80.5168 57.0303 80.8461 57.119 81.2514 57.119C81.8594 57.119 82.3724 56.9417 82.7904 56.587C83.2084 56.2197 83.4174 55.7067 83.4174 55.048V54.193L82.3154 54.231ZM98.3232 51.343C98.3232 51.9003 98.1459 52.3753 97.7912 52.768C97.4492 53.1607 96.9362 53.414 96.2522 53.528V53.604C96.9742 53.6927 97.5506 53.9397 97.9812 54.345C98.4246 54.7503 98.6462 55.2697 98.6462 55.903C98.6462 56.3463 98.5576 56.758 98.3802 57.138C98.2156 57.518 97.9496 57.8473 97.5822 58.126C97.2149 58.4047 96.7399 58.62 96.1572 58.772C95.5872 58.924 94.8906 59 94.0672 59H89.1272V48.626H94.0672C94.8779 48.626 95.5999 48.7147 96.2332 48.892C96.8792 49.0567 97.3859 49.3353 97.7532 49.728C98.1332 50.1207 98.3232 50.659 98.3232 51.343ZM95.7202 55.751C95.7202 55.3457 95.5619 55.0543 95.2452 54.877C94.9286 54.687 94.4536 54.592 93.8202 54.592H91.9582V57.043H93.8772C94.4092 57.043 94.8462 56.948 95.1882 56.758C95.5429 56.5553 95.7202 56.2197 95.7202 55.751ZM95.4542 51.571C95.4542 51.2417 95.3276 51.001 95.0742 50.849C94.8209 50.697 94.4472 50.621 93.9532 50.621H91.9582V52.673H93.6302C94.2256 52.673 94.6752 52.5907 94.9792 52.426C95.2959 52.2487 95.4542 51.9637 95.4542 51.571ZM105.332 48.417C106.726 48.417 107.79 48.721 108.524 49.329C109.272 49.9243 109.645 50.8427 109.645 52.084V59H107.669L107.118 57.594H107.042C106.751 57.9613 106.447 58.2653 106.13 58.506C105.826 58.7467 105.472 58.9177 105.066 59.019C104.674 59.133 104.186 59.19 103.603 59.19C102.995 59.19 102.444 59.076 101.95 58.848C101.469 58.6073 101.089 58.2463 100.81 57.765C100.532 57.271 100.392 56.6503 100.392 55.903C100.392 54.801 100.779 53.9903 101.551 53.471C102.324 52.939 103.483 52.6477 105.028 52.597L106.833 52.54V52.084C106.833 51.5393 106.688 51.1403 106.396 50.887C106.118 50.6337 105.725 50.507 105.218 50.507C104.712 50.507 104.218 50.583 103.736 50.735C103.255 50.8743 102.774 51.0517 102.292 51.267L101.361 49.348C101.919 49.0567 102.533 48.8287 103.204 48.664C103.888 48.4993 104.598 48.417 105.332 48.417ZM105.731 54.231C104.819 54.2563 104.186 54.421 103.831 54.725C103.477 55.029 103.299 55.428 103.299 55.922C103.299 56.3527 103.426 56.663 103.679 56.853C103.933 57.0303 104.262 57.119 104.667 57.119C105.275 57.119 105.788 56.9417 106.206 56.587C106.624 56.2197 106.833 55.7067 106.833 55.048V54.193L105.731 54.231ZM46.8836 84V70.434H57.6186V84H54.7496V72.828H49.7526V84H46.8836ZM59.3308 73.626H62.4278L64.3848 79.459C64.4481 79.649 64.4988 79.839 64.5368 80.029C64.5875 80.219 64.6255 80.4153 64.6508 80.618C64.6888 80.8207 64.7141 81.036 64.7268 81.264H64.7838C64.8218 80.9347 64.8725 80.6243 64.9358 80.333C65.0118 80.029 65.0941 79.7377 65.1828 79.459L67.1018 73.626H70.1418L65.7528 85.33C65.4868 86.0393 65.1385 86.6347 64.7078 87.116C64.2898 87.5973 63.8021 87.9583 63.2448 88.199C62.6875 88.4397 62.0795 88.56 61.4208 88.56C61.1041 88.56 60.8255 88.541 60.5848 88.503C60.3568 88.4777 60.1541 88.446 59.9768 88.408V86.166C60.1161 86.1913 60.2808 86.2167 60.4708 86.242C60.6735 86.2673 60.8825 86.28 61.0978 86.28C61.4905 86.28 61.8261 86.1977 62.1048 86.033C62.3961 85.8683 62.6368 85.6403 62.8268 85.349C63.0168 85.0703 63.1688 84.7663 63.2828 84.437L63.4538 83.924L59.3308 73.626ZM80.2182 75.754H76.8172V84H73.9862V75.754H70.5852V73.626H80.2182V75.754ZM84.8681 77.73C84.8681 77.9453 84.8555 78.2113 84.8301 78.528C84.8175 78.8447 84.7985 79.1677 84.7731 79.497C84.7605 79.8263 84.7415 80.1177 84.7161 80.371C84.6908 80.6243 84.6718 80.8017 84.6591 80.903L89.4471 73.626H92.8481V84H90.1121V79.858C90.1121 79.516 90.1248 79.1423 90.1501 78.737C90.1755 78.319 90.2008 77.9327 90.2261 77.578C90.2641 77.2107 90.2895 76.932 90.3021 76.742L85.5331 84H82.1321V73.626H84.8681V77.73ZM98.6379 73.626V77.616H102.59V73.626H105.421V84H102.59V79.725H98.6379V84H95.8069V73.626H98.6379ZM106.905 73.626H110.002L111.959 79.459C112.022 79.649 112.073 79.839 112.111 80.029C112.162 80.219 112.2 80.4153 112.225 80.618C112.263 80.8207 112.288 81.036 112.301 81.264H112.358C112.396 80.9347 112.447 80.6243 112.51 80.333C112.586 80.029 112.668 79.7377 112.757 79.459L114.676 73.626H117.716L113.327 85.33C113.061 86.0393 112.713 86.6347 112.282 87.116C111.864 87.5973 111.376 87.9583 110.819 88.199C110.262 88.4397 109.654 88.56 108.995 88.56C108.678 88.56 108.4 88.541 108.159 88.503C107.931 88.4777 107.728 88.446 107.551 88.408V86.166C107.69 86.1913 107.855 86.2167 108.045 86.242C108.248 86.2673 108.457 86.28 108.672 86.28C109.065 86.28 109.4 86.1977 109.679 86.033C109.97 85.8683 110.211 85.6403 110.401 85.349C110.591 85.0703 110.743 84.7663 110.857 84.437L111.028 83.924L106.905 73.626Z" fill="black"/>
</svg>
