<svg width="66" height="64" viewBox="0 0 66 64" fill="none" xmlns="http://www.w3.org/2000/svg">
<g filter="url(#filter0_d_31_324)">
<rect x="10" y="10" width="41" height="41" rx="20.5" fill="#042558"/>
<path fill-rule="evenodd" clip-rule="evenodd" d="M40.8166 32.7339L24.8635 39.4367C24.2443 39.6955 23.5747 39.6349 23.024 39.2666C22.4714 38.9003 22.1395 38.29 22.1382 37.6332C22.1376 37.3277 22.2068 37.0321 22.3418 36.7603L25.1739 30.9512L22.3195 25.1529C22.1855 24.8697 22.1172 24.5783 22.1166 24.2868L22.1166 24.2729C22.1153 23.624 22.4429 23.0165 22.9921 22.6441L22.9941 22.6421C23.5454 22.2757 24.2147 22.2105 24.8309 22.4669L40.8096 29.1084C41.5514 29.4184 42.015 30.1103 42.0166 30.9188C42.0181 31.7274 41.5592 32.4211 40.8166 32.7339Z" fill="white"/>
</g>
<defs>
<filter id="filter0_d_31_324" x="0" y="0" width="69" height="69" filterUnits="userSpaceOnUse" color-interpolation-filters="sRGB">
<feFlood flood-opacity="0" result="BackgroundImageFix"/>
<feColorMatrix in="SourceAlpha" type="matrix" values="0 0 0 0 0 0 0 0 0 0 0 0 0 0 0 0 0 0 127 0" result="hardAlpha"/>
<feOffset dx="4" dy="4"/>
<feGaussianBlur stdDeviation="7"/>
<feComposite in2="hardAlpha" operator="out"/>
<feColorMatrix type="matrix" values="0 0 0 0 0 0 0 0 0 0 0 0 0 0 0 0 0 0 0.25 0"/>
<feBlend mode="normal" in2="BackgroundImageFix" result="effect1_dropShadow_31_324"/>
<feBlend mode="normal" in="SourceGraphic" in2="effect1_dropShadow_31_324" result="shape"/>
</filter>
</defs>
</svg>
