<svg width="756" height="369" viewBox="0 0 756 369" fill="none" xmlns="http://www.w3.org/2000/svg">
<path d="M577 181.5C591.977 98.9766 726.881 138.867 742.381 22.3669" stroke="black" stroke-width="2"/>
<path d="M570.5 233.5C563.5 267.5 534.5 274 528 275" stroke="black" stroke-width="2"/>
<path d="M518.5 276.5C487.3 279.913 490.5 265.5 458.5 273.5" stroke="black" stroke-width="2"/>
<path d="M438 279C405.5 292 381.333 287.5 368 282.5" stroke="black" stroke-width="2"/>
<path d="M359.405 279.498C329.291 261.654 317.162 235.118 313 221.5" stroke="black" stroke-width="2"/>
<path d="M147.239 123.328C136.329 86.7587 14.7872 108.779 14.5 180" stroke="black" stroke-width="2"/>
<path d="M150.5 138.5C165 203.5 288 145 302.039 177.094" stroke="black" stroke-width="2"/>
<path d="M445.832 277.452C445.228 277.083 445.057 276.307 445.45 275.719L451.491 266.688C451.884 266.1 453.332 266.174 453.785 266.688C454.5 267.5 454.393 268.412 454 269L449.5 275.719L457 280C457.5 281 457.206 281.692 457 282C456.5 282.5 455.604 282.869 455 282.5L445.829 277.457L445.832 277.452Z" fill="#E63946"/>
<path d="M147.095 127.576C147.454 126.966 148.227 126.782 148.822 127.165L157.955 133.051C158.549 133.434 158.5 134.884 157.994 135.345C157.194 136.074 156.28 135.982 155.686 135.599L148.891 131.214L144.738 138.786C143.747 139.303 143.05 139.021 142.739 138.82C142.23 138.329 141.846 137.439 142.205 136.829L147.091 127.573L147.095 127.576Z" fill="#E63946"/>
<path d="M117.447 359.202C117.957 359.692 117.957 360.487 117.447 360.977L109.607 368.499C109.097 368.989 107.698 368.606 107.366 368.006C106.843 367.06 107.143 366.192 107.653 365.702L113.492 360.107L107.087 354.314C106.813 353.23 107.249 352.618 107.517 352.361C108.112 351.98 109.067 351.813 109.577 352.303L117.451 359.198L117.447 359.202Z" fill="#E63946"/>
<path d="M14 232C14 325 60.5001 360 108.5 360" stroke="black" stroke-width="2"/>
</svg>
