<svg width="903" height="536" viewBox="0 0 903 536" fill="none" xmlns="http://www.w3.org/2000/svg">
<path d="M577.002 254.974C591.979 172.451 879 210 894.5 93.5" stroke="black" stroke-width="2"/>
<path d="M570.502 306.974C563.502 340.974 534.502 347.474 528.002 348.474" stroke="black" stroke-width="2"/>
<path d="M518.502 349.974C487.302 353.388 490.502 338.974 458.502 346.974" stroke="black" stroke-width="2"/>
<path d="M438.002 352.474C405.502 365.474 381.335 360.974 368.002 355.974" stroke="black" stroke-width="2"/>
<path d="M359.407 352.972C329.293 335.128 317.164 308.593 313.002 294.974" stroke="black" stroke-width="2"/>
<path d="M147.241 196.802C136.331 160.233 14.7894 182.253 14.5021 253.474" stroke="black" stroke-width="2"/>
<path d="M150.502 211.974C165.002 276.974 288.002 218.474 302.041 250.569" stroke="black" stroke-width="2"/>
<path d="M445.834 350.926C445.23 350.558 445.059 349.781 445.453 349.193L451.493 340.162C451.886 339.574 453.335 339.648 453.787 340.162C454.502 340.974 454.395 341.886 454.002 342.474L449.502 349.193L457.002 353.474C457.502 354.474 457.208 355.166 457.002 355.474C456.502 355.974 455.606 356.343 455.002 355.974L445.831 350.931L445.834 350.926Z" fill="#E63946"/>
<path d="M147.098 201.051C147.456 200.441 148.229 200.257 148.824 200.64L157.957 206.525C158.551 206.908 158.502 208.358 157.996 208.819C157.196 209.548 156.282 209.457 155.688 209.073L148.893 204.689L144.741 212.261C143.749 212.778 143.052 212.495 142.741 212.295C142.232 211.803 141.849 210.913 142.207 210.303L147.093 201.047L147.098 201.051Z" fill="#E63946"/>
<path d="M223.447 526.202C223.957 526.692 223.957 527.487 223.447 527.977L215.607 535.499C215.097 535.989 213.698 535.606 213.366 535.006C212.843 534.06 213.143 533.192 213.653 532.702L219.492 527.107L213.087 521.314C212.813 520.23 213.249 519.618 213.517 519.361C214.112 518.98 215.067 518.813 215.577 519.303L223.451 526.198L223.447 526.202Z" fill="#E63946"/>
<path d="M14.0024 305.474C14.0024 398.474 33.5004 535 212 527" stroke="black" stroke-width="2"/>
</svg>
