<svg width="756" height="462" viewBox="0 0 756 462" fill="none" xmlns="http://www.w3.org/2000/svg">
<path d="M577.002 180.974C591.979 98.4509 726.883 138.341 742.383 21.8412" stroke="black" stroke-width="2"/>
<path d="M570.502 232.974C563.502 266.974 534.502 273.474 528.002 274.474" stroke="black" stroke-width="2"/>
<path d="M518.502 275.974C487.302 279.388 490.502 264.974 458.502 272.974" stroke="black" stroke-width="2"/>
<path d="M438.002 278.474C405.502 291.474 381.335 286.974 368.002 281.974" stroke="black" stroke-width="2"/>
<path d="M359.407 278.972C329.293 261.128 317.164 234.593 313.002 220.974" stroke="black" stroke-width="2"/>
<path d="M147.241 122.802C136.331 86.233 14.7894 108.253 14.5021 179.474" stroke="black" stroke-width="2"/>
<path d="M150.502 137.974C165.002 202.974 288.002 144.474 302.041 176.568" stroke="black" stroke-width="2"/>
<path d="M445.834 276.926C445.23 276.558 445.059 275.781 445.453 275.193L451.493 266.162C451.886 265.574 453.335 265.648 453.787 266.162C454.502 266.974 454.395 267.886 454.002 268.474L449.502 275.193L457.002 279.474C457.502 280.474 457.208 281.166 457.002 281.474C456.502 281.974 455.606 282.343 455.002 281.974L445.831 276.931L445.834 276.926Z" fill="#E63946"/>
<path d="M147.098 127.051C147.456 126.441 148.229 126.257 148.824 126.64L157.957 132.525C158.551 132.908 158.502 134.358 157.996 134.819C157.196 135.548 156.282 135.457 155.688 135.073L148.893 130.689L144.741 138.261C143.749 138.778 143.052 138.495 142.741 138.295C142.232 137.803 141.849 136.913 142.207 136.303L147.093 127.047L147.098 127.051Z" fill="#E63946"/>
<path d="M223.447 452.202C223.957 452.692 223.957 453.487 223.447 453.977L215.607 461.499C215.097 461.989 213.698 461.606 213.366 461.006C212.843 460.06 213.143 459.192 213.653 458.702L219.492 453.107L213.087 447.314C212.813 446.23 213.249 445.618 213.517 445.361C214.112 444.98 215.067 444.813 215.577 445.303L223.451 452.198L223.447 452.202Z" fill="#E63946"/>
<path d="M14.0021 231.474C14.0021 324.474 33.5 461 212 453" stroke="black" stroke-width="2"/>
</svg>
