<svg width="160" height="38" viewBox="0 0 160 38" fill="none" xmlns="http://www.w3.org/2000/svg">
<path d="M23.016 18.756C23.2587 18.756 23.4453 18.868 23.576 19.092C23.7253 19.316 23.8 19.624 23.8 20.016C23.8 20.744 23.6227 21.3227 23.268 21.752C22.2227 23.0027 21.2053 23.88 20.216 24.384C19.2453 24.888 18.0693 25.14 16.688 25.14C15.7173 25.14 14.8213 25.0187 14 24.776C13.1787 24.5333 12.18 24.1693 11.004 23.684C9.996 23.2547 9.1 22.9093 8.316 22.648C7.45733 23.5813 6.68267 24.2347 5.992 24.608C5.30133 24.9627 4.57333 25.14 3.808 25.14C2.78133 25.14 1.96 24.9067 1.344 24.44C0.728 23.9547 0.42 23.3293 0.42 22.564C0.42 21.9853 0.606667 21.4533 0.98 20.968C1.372 20.4827 1.91333 20.1 2.604 19.82C3.29467 19.54 4.09733 19.4 5.012 19.4C5.53467 19.4 5.92667 19.4093 6.188 19.428C9.84667 14.8733 13.1507 10.0667 16.1 5.008C14.4947 4.728 12.8613 4.588 11.2 4.588C9.05333 4.588 7.476 4.84 6.468 5.344C5.47867 5.82933 4.984 6.604 4.984 7.668C4.984 7.98533 5.02133 8.256 5.096 8.48C5.17067 8.704 5.28267 8.96533 5.432 9.264C5.6 9.6 5.684 9.84267 5.684 9.992C5.684 10.3653 5.50667 10.6827 5.152 10.944C4.816 11.1867 4.424 11.308 3.976 11.308C3.50933 11.308 3.12667 11.168 2.828 10.888C2.47333 10.5707 2.184 10.1413 1.96 9.6C1.75467 9.04 1.652 8.41467 1.652 7.724C1.652 5.54 2.55733 3.92533 4.368 2.88C6.17867 1.83467 8.568 1.312 11.536 1.312C13.0107 1.312 14.5133 1.396 16.044 1.564C17.5933 1.732 19.04 2.00267 20.384 2.376C20.944 2.52533 21.3173 2.74 21.504 3.02C21.6907 3.28133 21.784 3.62667 21.784 4.056C21.784 4.56 21.6533 4.952 21.392 5.232C21.1307 5.512 20.7667 5.652 20.3 5.652H20.104C18.088 8.93733 16.044 12.092 13.972 15.116C12.3107 17.524 11.144 19.1573 10.472 20.016C11.5547 20.2587 12.4973 20.4827 13.3 20.688C14.2893 20.9493 15.0827 21.1453 15.68 21.276C16.296 21.388 16.828 21.444 17.276 21.444C18.3587 21.444 19.2827 21.2667 20.048 20.912C20.832 20.5387 21.5693 19.9507 22.26 19.148C22.484 18.8867 22.736 18.756 23.016 18.756ZM24.6542 18.112C24.2062 18.1493 23.8422 18.0187 23.5622 17.72C23.3009 17.4213 23.1702 17.0013 23.1702 16.46C23.1702 15.956 23.2916 15.5827 23.5342 15.34C23.7956 15.0973 24.1689 14.9573 24.6542 14.92L30.3942 14.36C30.8609 14.3227 31.2156 14.444 31.4582 14.724C31.7196 14.9853 31.8502 15.3773 31.8502 15.9C31.8502 16.908 31.3649 17.4587 30.3942 17.552L24.6542 18.112ZM41.2672 25.14C39.9792 25.14 38.8125 24.8227 37.7672 24.188C36.7405 23.5533 35.9285 22.6387 35.3312 21.444C34.7339 20.2307 34.4352 18.8027 34.4352 17.16C34.4352 14.3227 35.0419 11.7 36.2552 9.292C37.4685 6.86533 39.2605 4.924 41.6312 3.468C44.0019 1.99333 46.8485 1.256 50.1712 1.256C51.0299 1.256 51.9445 1.32133 52.9152 1.452C53.9045 1.58267 54.8005 1.77867 55.6032 2.04C56.1259 2.18933 56.3872 2.56267 56.3872 3.16C56.3872 3.64533 56.2005 4.10267 55.8272 4.532C55.4725 4.96133 55.0525 5.176 54.5672 5.176C54.4179 5.176 54.3059 5.16667 54.2312 5.148C53.2605 4.924 52.4299 4.76533 51.7392 4.672C51.0485 4.56 50.3205 4.504 49.5552 4.504C47.1845 4.504 45.1685 5.08267 43.5072 6.24C41.8459 7.37867 40.6045 8.89067 39.7832 10.776C38.9619 12.6613 38.5512 14.696 38.5512 16.88C38.5512 18.4667 38.8592 19.6987 39.4752 20.576C40.1099 21.4347 40.9312 21.864 41.9392 21.864C43.0779 21.864 44.0765 21.3973 44.9352 20.464C45.7939 19.5307 46.5779 18.0187 47.2872 15.928C47.9965 13.8373 48.6965 11 49.3872 7.416C49.4992 6.89333 49.7232 6.53867 50.0592 6.352C50.3952 6.16533 50.8432 6.072 51.4032 6.072C52.7285 6.072 53.3912 6.50133 53.3912 7.36C53.3912 7.50933 53.3632 7.696 53.3072 7.92C52.8219 9.73067 52.3739 11.7373 51.9632 13.94C51.5712 16.124 51.3752 17.7853 51.3752 18.924C51.3752 19.932 51.5245 20.6693 51.8232 21.136C52.1219 21.584 52.5792 21.808 53.1952 21.808C53.7925 21.808 54.3619 21.612 54.9032 21.22C55.4445 20.8093 56.1259 20.1187 56.9472 19.148C57.1712 18.8867 57.4232 18.756 57.7032 18.756C57.9459 18.756 58.1325 18.868 58.2632 19.092C58.4125 19.316 58.4872 19.624 58.4872 20.016C58.4872 20.744 58.3099 21.3227 57.9552 21.752C57.0405 22.8533 56.1445 23.6933 55.2672 24.272C54.3899 24.8507 53.3165 25.14 52.0472 25.14C50.7405 25.14 49.6859 24.7667 48.8832 24.02C48.0805 23.2547 47.5765 22.1813 47.3712 20.8C45.9899 23.6933 43.9552 25.14 41.2672 25.14ZM58.2109 25.14C57.5016 25.14 56.9976 24.7667 56.6989 24.02C56.4189 23.2733 56.2789 22.0787 56.2789 20.436C56.2789 18.0093 56.6242 15.704 57.3149 13.52C57.4829 12.9787 57.7536 12.5867 58.1269 12.344C58.5189 12.0827 59.0602 11.952 59.7509 11.952C60.1242 11.952 60.3856 11.9987 60.5349 12.092C60.6842 12.1853 60.7589 12.3627 60.7589 12.624C60.7589 12.9227 60.6189 13.5947 60.3389 14.64C60.1522 15.3867 60.0029 16.04 59.8909 16.6C59.7789 17.16 59.6856 17.8507 59.6109 18.672C60.2269 17.0667 60.9176 15.76 61.6829 14.752C62.4482 13.744 63.1949 13.0253 63.9229 12.596C64.6696 12.1667 65.3509 11.952 65.9669 11.952C67.1802 11.952 67.7869 12.5587 67.7869 13.772C67.7869 14.5 67.5816 15.816 67.1709 17.72C66.8162 19.344 66.6389 20.4173 66.6389 20.94C66.6389 21.6867 66.9096 22.06 67.4509 22.06C67.8242 22.06 68.2629 21.836 68.7669 21.388C69.2896 20.9213 69.9802 20.1747 70.8389 19.148C71.0629 18.8867 71.3149 18.756 71.5949 18.756C71.8376 18.756 72.0242 18.868 72.1549 19.092C72.3042 19.316 72.3789 19.624 72.3789 20.016C72.3789 20.7627 72.2016 21.3413 71.8469 21.752C71.0442 22.7413 70.1762 23.5533 69.2429 24.188C68.3282 24.8227 67.2829 25.14 66.1069 25.14C65.1549 25.14 64.4362 24.8693 63.9509 24.328C63.4656 23.768 63.2229 22.9653 63.2229 21.92C63.2229 21.3973 63.3536 20.464 63.6149 19.12C63.8576 17.944 63.9789 17.132 63.9789 16.684C63.9789 16.3853 63.8762 16.236 63.6709 16.236C63.4282 16.236 63.0829 16.5533 62.6349 17.188C62.2056 17.804 61.7576 18.6253 61.2909 19.652C60.8429 20.6787 60.4789 21.7613 60.1989 22.9C59.9936 23.7773 59.7509 24.3747 59.4709 24.692C59.2096 24.9907 58.7896 25.14 58.2109 25.14ZM84.3935 16.404C84.6362 16.404 84.8229 16.5253 84.9535 16.768C85.0842 17.0107 85.1495 17.3187 85.1495 17.692C85.1495 18.588 84.8789 19.12 84.3375 19.288C83.2175 19.68 81.9855 19.904 80.6415 19.96C80.2869 21.528 79.5869 22.788 78.5415 23.74C77.4962 24.6733 76.3109 25.14 74.9855 25.14C73.8655 25.14 72.9042 24.8693 72.1015 24.328C71.3175 23.7867 70.7202 23.068 70.3095 22.172C69.8989 21.276 69.6935 20.3053 69.6935 19.26C69.6935 17.8413 69.9642 16.5813 70.5055 15.48C71.0469 14.36 71.7935 13.492 72.7455 12.876C73.6975 12.2413 74.7522 11.924 75.9095 11.924C77.3282 11.924 78.4669 12.4187 79.3255 13.408C80.2029 14.3787 80.7162 15.5827 80.8655 17.02C81.7429 16.964 82.7882 16.7773 84.0015 16.46C84.1509 16.4227 84.2815 16.404 84.3935 16.404ZM75.2095 22.172C75.8069 22.172 76.3202 21.9293 76.7495 21.444C77.1975 20.9587 77.4962 20.2587 77.6455 19.344C77.0669 18.952 76.6189 18.4387 76.3015 17.804C76.0029 17.1693 75.8535 16.4973 75.8535 15.788C75.8535 15.4893 75.8815 15.1907 75.9375 14.892H75.7975C75.0509 14.892 74.4255 15.256 73.9215 15.984C73.4362 16.6933 73.1935 17.7013 73.1935 19.008C73.1935 20.0347 73.3895 20.8187 73.7815 21.36C74.1922 21.9013 74.6682 22.172 75.2095 22.172ZM84.7343 25.14C84.025 25.14 83.521 24.7667 83.2223 24.02C82.9423 23.2733 82.8023 22.0787 82.8023 20.436C82.8023 18.0093 83.1477 15.704 83.8383 13.52C84.0063 12.9787 84.277 12.5867 84.6503 12.344C85.0423 12.0827 85.5837 11.952 86.2743 11.952C86.6477 11.952 86.909 11.9987 87.0583 12.092C87.2077 12.1853 87.2823 12.3627 87.2823 12.624C87.2823 12.9227 87.1423 13.5947 86.8623 14.64C86.6757 15.3867 86.5263 16.04 86.4143 16.6C86.3023 17.16 86.209 17.8507 86.1343 18.672C86.7503 17.0667 87.441 15.76 88.2063 14.752C88.9717 13.744 89.7183 13.0253 90.4463 12.596C91.193 12.1667 91.8743 11.952 92.4903 11.952C93.7037 11.952 94.3103 12.5587 94.3103 13.772C94.3103 14.5 94.105 15.816 93.6943 17.72C93.3397 19.344 93.1623 20.4173 93.1623 20.94C93.1623 21.6867 93.433 22.06 93.9743 22.06C94.3477 22.06 94.7863 21.836 95.2903 21.388C95.813 20.9213 96.5037 20.1747 97.3623 19.148C97.5863 18.8867 97.8383 18.756 98.1183 18.756C98.361 18.756 98.5477 18.868 98.6783 19.092C98.8277 19.316 98.9023 19.624 98.9023 20.016C98.9023 20.7627 98.725 21.3413 98.3703 21.752C97.5677 22.7413 96.6997 23.5533 95.7663 24.188C94.8517 24.8227 93.8063 25.14 92.6303 25.14C91.6783 25.14 90.9597 24.8693 90.4743 24.328C89.989 23.768 89.7463 22.9653 89.7463 21.92C89.7463 21.3973 89.877 20.464 90.1383 19.12C90.381 17.944 90.5023 17.132 90.5023 16.684C90.5023 16.3853 90.3997 16.236 90.1943 16.236C89.9517 16.236 89.6063 16.5533 89.1583 17.188C88.729 17.804 88.281 18.6253 87.8143 19.652C87.3663 20.6787 87.0023 21.7613 86.7223 22.9C86.517 23.7773 86.2743 24.3747 85.9943 24.692C85.733 24.9907 85.313 25.14 84.7343 25.14ZM110.973 18.812C111.216 18.812 111.402 18.9333 111.533 19.176C111.682 19.4 111.757 19.6893 111.757 20.044C111.757 20.4733 111.692 20.8093 111.561 21.052C111.43 21.2947 111.225 21.5093 110.945 21.696L105.569 25.308C104.86 29.172 103.926 32.2053 102.769 34.408C101.63 36.6293 100.174 37.74 98.401 37.74C97.449 37.74 96.6743 37.4413 96.077 36.844C95.4796 36.2653 95.181 35.5 95.181 34.548C95.181 33.6707 95.377 32.7747 95.769 31.86C96.1796 30.9453 96.9263 29.8907 98.009 28.696C99.1103 27.52 100.66 26.1667 102.657 24.636L102.741 23.992C102.872 23.3013 103.021 22.312 103.189 21.024C102.816 22.368 102.293 23.3947 101.621 24.104C100.949 24.7947 100.24 25.14 99.493 25.14C98.653 25.14 97.9623 24.7573 97.421 23.992C96.8983 23.208 96.637 22.2373 96.637 21.08C96.637 19.68 96.7303 18.4013 96.917 17.244C97.1036 16.068 97.4116 14.8267 97.841 13.52C98.0276 12.96 98.289 12.5587 98.625 12.316C98.961 12.0733 99.493 11.952 100.221 11.952C100.632 11.952 100.912 12.0173 101.061 12.148C101.229 12.2787 101.313 12.4747 101.313 12.736C101.313 12.8853 101.21 13.3893 101.005 14.248C100.818 14.9387 100.669 15.564 100.557 16.124C100.408 16.8893 100.277 17.6267 100.165 18.336C100.053 19.0267 99.997 19.596 99.997 20.044C99.997 20.7533 100.193 21.108 100.585 21.108C100.865 21.108 101.21 20.828 101.621 20.268C102.05 19.708 102.498 18.8587 102.965 17.72C103.45 16.5813 103.917 15.1813 104.365 13.52C104.514 12.96 104.738 12.5587 105.037 12.316C105.354 12.0733 105.821 11.952 106.437 11.952C106.866 11.952 107.165 12.008 107.333 12.12C107.501 12.232 107.585 12.4187 107.585 12.68C107.585 13.1467 107.342 14.752 106.857 17.496L106.129 22.004C107.566 20.9213 108.966 19.932 110.329 19.036C110.572 18.8867 110.786 18.812 110.973 18.812ZM98.709 35.024C99.1756 35.024 99.6983 34.4827 100.277 33.4C100.856 32.3173 101.434 30.516 102.013 27.996C100.576 29.2093 99.5303 30.3107 98.877 31.3C98.2423 32.308 97.925 33.1853 97.925 33.932C97.925 34.2493 97.981 34.5107 98.093 34.716C98.2236 34.9213 98.429 35.024 98.709 35.024ZM111.723 25.14C111.013 25.14 110.509 24.7667 110.211 24.02C109.931 23.2733 109.791 22.0787 109.791 20.436C109.791 18.0093 110.136 15.704 110.827 13.52C110.995 12.9787 111.265 12.5867 111.639 12.344C112.031 12.0827 112.572 11.952 113.263 11.952C113.636 11.952 113.897 11.9987 114.047 12.092C114.196 12.1853 114.271 12.3627 114.271 12.624C114.271 12.9227 114.131 13.5947 113.851 14.64C113.664 15.3867 113.515 16.04 113.403 16.6C113.291 17.1413 113.197 17.8227 113.123 18.644C113.627 17.188 114.224 15.956 114.915 14.948C115.624 13.94 116.343 13.1933 117.071 12.708C117.817 12.204 118.517 11.952 119.171 11.952C119.824 11.952 120.281 12.1013 120.543 12.4C120.823 12.6987 120.963 13.156 120.963 13.772C120.963 14.3693 120.785 15.452 120.431 17.02C120.281 17.692 120.179 18.196 120.123 18.532C121.056 16.236 122.092 14.5653 123.231 13.52C124.369 12.4747 125.433 11.952 126.423 11.952C127.636 11.952 128.243 12.5587 128.243 13.772C128.243 14.5 128.037 15.816 127.627 17.72C127.272 19.344 127.095 20.4173 127.095 20.94C127.095 21.6867 127.365 22.06 127.907 22.06C128.28 22.06 128.719 21.836 129.223 21.388C129.745 20.9213 130.436 20.1747 131.295 19.148C131.519 18.8867 131.771 18.756 132.051 18.756C132.293 18.756 132.48 18.868 132.611 19.092C132.76 19.316 132.835 19.624 132.835 20.016C132.835 20.7627 132.657 21.3413 132.303 21.752C131.5 22.7413 130.632 23.5533 129.699 24.188C128.784 24.8227 127.739 25.14 126.563 25.14C125.611 25.14 124.892 24.8693 124.407 24.328C123.921 23.768 123.679 22.9653 123.679 21.92C123.679 21.3973 123.809 20.464 124.071 19.12C124.313 17.944 124.435 17.132 124.435 16.684C124.435 16.3853 124.332 16.236 124.127 16.236C123.884 16.236 123.539 16.5533 123.091 17.188C122.643 17.804 122.195 18.6253 121.747 19.652C121.299 20.6787 120.935 21.7613 120.655 22.9C120.449 23.796 120.207 24.3933 119.927 24.692C119.665 24.9907 119.236 25.14 118.639 25.14C118.023 25.14 117.556 24.8507 117.239 24.272C116.94 23.6747 116.791 22.956 116.791 22.116C116.791 21.4067 116.884 20.38 117.071 19.036C117.22 17.8413 117.295 17.0573 117.295 16.684C117.295 16.3853 117.192 16.236 116.987 16.236C116.707 16.236 116.352 16.572 115.923 17.244C115.493 17.916 115.073 18.7747 114.663 19.82C114.271 20.8653 113.953 21.892 113.711 22.9C113.505 23.7773 113.263 24.3747 112.983 24.692C112.721 24.9907 112.301 25.14 111.723 25.14ZM134.239 10.104C133.455 10.104 132.867 9.92667 132.475 9.572C132.083 9.19867 131.887 8.68533 131.887 8.032C131.887 7.37867 132.139 6.83733 132.643 6.408C133.165 5.96 133.809 5.736 134.575 5.736C135.265 5.736 135.825 5.904 136.255 6.24C136.684 6.576 136.899 7.052 136.899 7.668C136.899 8.41467 136.656 9.012 136.171 9.46C135.685 9.88933 135.041 10.104 134.239 10.104ZM134.015 25.14C132.801 25.14 131.915 24.7107 131.355 23.852C130.813 22.9933 130.543 21.8547 130.543 20.436C130.543 19.596 130.645 18.5227 130.851 17.216C131.075 15.8907 131.355 14.6587 131.691 13.52C131.859 12.9227 132.083 12.512 132.363 12.288C132.643 12.064 133.091 11.952 133.707 11.952C134.659 11.952 135.135 12.2693 135.135 12.904C135.135 13.3707 134.957 14.4533 134.603 16.152C134.155 18.2053 133.931 19.596 133.931 20.324C133.931 20.884 134.005 21.3133 134.155 21.612C134.304 21.9107 134.556 22.06 134.911 22.06C135.247 22.06 135.667 21.8267 136.171 21.36C136.675 20.8933 137.347 20.156 138.187 19.148C138.411 18.8867 138.663 18.756 138.943 18.756C139.185 18.756 139.372 18.868 139.503 19.092C139.652 19.316 139.727 19.624 139.727 20.016C139.727 20.7627 139.549 21.3413 139.195 21.752C137.347 24.0107 135.62 25.14 134.015 25.14ZM149.949 18.756C150.192 18.756 150.379 18.868 150.509 19.092C150.659 19.316 150.733 19.624 150.733 20.016C150.733 20.7627 150.556 21.3413 150.201 21.752C149.399 22.7413 148.521 23.5533 147.569 24.188C146.617 24.8227 145.525 25.14 144.293 25.14C140.485 25.14 138.581 22.4613 138.581 17.104C138.581 16.2827 138.609 15.452 138.665 14.612H137.573C137.013 14.612 136.631 14.5093 136.425 14.304C136.239 14.0987 136.145 13.772 136.145 13.324C136.145 12.2787 136.565 11.756 137.405 11.756H139.001C139.319 9.70267 139.804 7.82667 140.457 6.128C141.111 4.42933 141.895 3.076 142.809 2.068C143.743 1.06 144.741 0.555999 145.805 0.555999C146.589 0.555999 147.205 0.901333 147.653 1.592C148.101 2.28267 148.325 3.15067 148.325 4.196C148.325 7.08933 147.112 9.60933 144.685 11.756H147.821C148.12 11.756 148.335 11.8213 148.465 11.952C148.596 12.0827 148.661 12.3253 148.661 12.68C148.661 13.968 147.607 14.612 145.497 14.612H142.081C142.044 15.5453 142.025 16.2733 142.025 16.796C142.025 18.7373 142.249 20.1 142.697 20.884C143.164 21.668 143.892 22.06 144.881 22.06C145.684 22.06 146.393 21.8173 147.009 21.332C147.625 20.8467 148.353 20.1187 149.193 19.148C149.417 18.8867 149.669 18.756 149.949 18.756ZM145.049 3.244C144.769 3.244 144.452 3.59867 144.097 4.308C143.761 4.99867 143.435 5.96933 143.117 7.22C142.819 8.452 142.567 9.824 142.361 11.336C143.463 10.384 144.284 9.32 144.825 8.144C145.385 6.94933 145.665 5.86667 145.665 4.896C145.665 3.79467 145.46 3.244 145.049 3.244ZM158.253 11.952C158.683 11.952 158.981 12.008 159.149 12.12C159.317 12.232 159.401 12.4187 159.401 12.68C159.401 13.128 159.159 14.724 158.673 17.468C158.244 20.1 157.992 21.6587 157.917 22.144C157.227 26.9413 156.275 30.74 155.061 33.54C153.848 36.34 152.233 37.74 150.217 37.74C149.265 37.74 148.491 37.4413 147.893 36.844C147.296 36.2653 146.997 35.5 146.997 34.548C146.997 33.6707 147.193 32.7747 147.585 31.86C147.996 30.9453 148.743 29.8907 149.825 28.696C150.927 27.52 152.476 26.1667 154.473 24.636L154.557 23.992C154.688 23.3013 154.837 22.312 155.005 21.024C154.632 22.368 154.109 23.3947 153.437 24.104C152.765 24.7947 152.056 25.14 151.309 25.14C150.469 25.14 149.779 24.7573 149.237 23.992C148.715 23.208 148.453 22.2373 148.453 21.08C148.453 19.68 148.547 18.4013 148.733 17.244C148.92 16.068 149.228 14.8267 149.657 13.52C149.844 12.96 150.105 12.5587 150.441 12.316C150.777 12.0733 151.309 11.952 152.037 11.952C152.448 11.952 152.728 12.0173 152.877 12.148C153.045 12.2787 153.129 12.4747 153.129 12.736C153.129 12.8853 153.027 13.3893 152.821 14.248C152.635 14.9387 152.485 15.564 152.373 16.124C152.224 16.8893 152.093 17.6267 151.981 18.336C151.869 19.0267 151.813 19.596 151.813 20.044C151.813 20.7533 152.009 21.108 152.401 21.108C152.681 21.108 153.027 20.828 153.437 20.268C153.867 19.708 154.315 18.8587 154.781 17.72C155.267 16.5813 155.733 15.1813 156.181 13.52C156.331 12.96 156.555 12.5587 156.853 12.316C157.171 12.0733 157.637 11.952 158.253 11.952ZM150.525 35.024C150.992 35.024 151.515 34.4827 152.093 33.4C152.672 32.3173 153.251 30.516 153.829 27.996C152.392 29.2093 151.347 30.3107 150.693 31.3C150.059 32.308 149.741 33.1853 149.741 33.932C149.741 34.2493 149.797 34.5107 149.909 34.716C150.04 34.9213 150.245 35.024 150.525 35.024Z" fill="black"/>
</svg>
