<svg width="588" height="113" viewBox="0 0 588 113" fill="none" xmlns="http://www.w3.org/2000/svg">
<path d="M68.048 55.268C68.776 55.268 69.336 55.604 69.728 56.276C70.176 56.948 70.4 57.872 70.4 59.048C70.4 61.232 69.868 62.968 68.804 64.256C65.668 68.008 62.616 70.64 59.648 72.152C56.736 73.664 53.208 74.42 49.064 74.42C46.152 74.42 43.464 74.056 41 73.328C38.536 72.6 35.54 71.508 32.012 70.052C28.988 68.764 26.3 67.728 23.948 66.944C21.372 69.744 19.048 71.704 16.976 72.824C14.904 73.888 12.72 74.42 10.424 74.42C7.344 74.42 4.88 73.72 3.032 72.32C1.184 70.864 0.26 68.988 0.26 66.692C0.26 64.956 0.82 63.36 1.94 61.904C3.116 60.448 4.74 59.3 6.812 58.46C8.884 57.62 11.292 57.2 14.036 57.2C15.604 57.2 16.78 57.228 17.564 57.284C28.54 43.62 38.452 29.2 47.3 14.024C42.484 13.184 37.584 12.764 32.6 12.764C26.16 12.764 21.428 13.52 18.404 15.032C15.436 16.488 13.952 18.812 13.952 22.004C13.952 22.956 14.064 23.768 14.288 24.44C14.512 25.112 14.848 25.896 15.296 26.792C15.8 27.8 16.052 28.528 16.052 28.976C16.052 30.096 15.52 31.048 14.456 31.832C13.448 32.56 12.272 32.924 10.928 32.924C9.528 32.924 8.38 32.504 7.484 31.664C6.42 30.712 5.552 29.424 4.88 27.8C4.264 26.12 3.956 24.244 3.956 22.172C3.956 15.62 6.672 10.776 12.104 7.64C17.536 4.504 24.704 2.936 33.608 2.936C38.032 2.936 42.54 3.188 47.132 3.692C51.78 4.196 56.12 5.008 60.152 6.128C61.832 6.576 62.952 7.22 63.512 8.06C64.072 8.844 64.352 9.88 64.352 11.168C64.352 12.68 63.96 13.856 63.176 14.696C62.392 15.536 61.3 15.956 59.9 15.956H59.312C53.264 25.812 47.132 35.276 40.916 44.348C35.932 51.572 32.432 56.472 30.416 59.048C33.664 59.776 36.492 60.448 38.9 61.064C41.868 61.848 44.248 62.436 46.04 62.828C47.888 63.164 49.484 63.332 50.828 63.332C54.076 63.332 56.848 62.8 59.144 61.736C61.496 60.616 63.708 58.852 65.78 56.444C66.452 55.66 67.208 55.268 68.048 55.268ZM106.039 55.268C106.767 55.268 107.327 55.604 107.719 56.276C108.167 56.948 108.391 57.872 108.391 59.048C108.391 61.288 107.859 63.024 106.795 64.256C104.723 66.776 101.783 69.1 97.975 71.228C94.223 73.356 90.191 74.42 85.879 74.42C79.999 74.42 75.435 72.824 72.187 69.632C68.939 66.44 67.315 62.072 67.315 56.528C67.315 52.664 68.127 49.08 69.751 45.776C71.375 42.416 73.615 39.756 76.471 37.796C79.383 35.836 82.659 34.856 86.299 34.856C89.547 34.856 92.151 35.836 94.111 37.796C96.071 39.7 97.051 42.304 97.051 45.608C97.051 49.472 95.651 52.804 92.851 55.604C90.107 58.348 85.431 60.532 78.823 62.156C80.223 64.732 82.883 66.02 86.803 66.02C89.323 66.02 92.179 65.152 95.371 63.416C98.619 61.624 101.419 59.3 103.771 56.444C104.443 55.66 105.199 55.268 106.039 55.268ZM84.871 43.088C82.799 43.088 81.035 44.292 79.579 46.7C78.179 49.108 77.479 52.02 77.479 55.436V55.604C80.783 54.82 83.387 53.644 85.291 52.076C87.195 50.508 88.147 48.688 88.147 46.616C88.147 45.552 87.839 44.712 87.223 44.096C86.663 43.424 85.879 43.088 84.871 43.088ZM107.516 74.42C105.388 74.42 103.876 73.3 102.98 71.06C102.14 68.82 101.72 65.236 101.72 60.308C101.72 53.028 102.756 46.112 104.828 39.56C105.332 37.936 106.144 36.76 107.264 36.032C108.44 35.248 110.064 34.856 112.136 34.856C113.256 34.856 114.04 34.996 114.488 35.276C114.936 35.556 115.16 36.088 115.16 36.872C115.16 37.768 114.74 39.784 113.9 42.92C113.34 45.16 112.892 47.12 112.556 48.8C112.22 50.48 111.94 52.552 111.716 55.016C113.564 50.2 115.636 46.28 117.932 43.256C120.228 40.232 122.468 38.076 124.652 36.788C126.892 35.5 128.936 34.856 130.784 34.856C134.424 34.856 136.244 36.676 136.244 40.316C136.244 41.044 135.992 42.808 135.488 45.608C135.04 47.848 134.816 49.248 134.816 49.808C134.816 51.768 135.516 52.748 136.916 52.748C138.484 52.748 140.5 51.516 142.964 49.052C143.692 48.324 144.448 47.96 145.232 47.96C145.96 47.96 146.52 48.296 146.912 48.968C147.36 49.584 147.584 50.424 147.584 51.488C147.584 53.56 147.024 55.184 145.904 56.36C144.336 57.984 142.488 59.384 140.36 60.56C138.288 61.68 136.076 62.24 133.724 62.24C130.756 62.24 128.488 61.484 126.92 59.972C125.408 58.46 124.652 56.416 124.652 53.84C124.652 53 124.736 52.16 124.904 51.32C125.016 50.2 125.072 49.444 125.072 49.052C125.072 48.156 124.764 47.708 124.148 47.708C123.308 47.708 122.188 48.66 120.788 50.564C119.444 52.412 118.1 54.876 116.756 57.956C115.412 61.036 114.32 64.284 113.48 67.7C112.864 70.332 112.136 72.124 111.296 73.076C110.512 73.972 109.252 74.42 107.516 74.42ZM153.974 74.42C150.67 74.42 147.842 73.608 145.49 71.984C143.194 70.304 141.458 68.12 140.282 65.432C139.106 62.744 138.518 59.86 138.518 56.78C138.518 52.524 139.302 48.744 140.87 45.44C142.494 42.08 144.678 39.476 147.422 37.628C150.166 35.724 153.246 34.772 156.662 34.772C159.966 34.772 162.794 35.612 165.146 37.292C167.498 38.916 169.262 41.072 170.438 43.76C171.614 46.448 172.202 49.332 172.202 52.412C172.202 56.668 171.39 60.476 169.766 63.836C168.142 67.14 165.93 69.744 163.13 71.648C160.386 73.496 157.334 74.42 153.974 74.42ZM154.898 65.348C156.802 65.348 158.398 64.312 159.686 62.24C161.03 60.168 161.702 57.144 161.702 53.168C161.702 50.088 161.142 47.764 160.022 46.196C158.902 44.628 157.558 43.844 155.99 43.844C153.974 43.844 152.294 44.88 150.95 46.952C149.662 48.968 149.018 51.992 149.018 56.024C149.018 59.216 149.578 61.568 150.698 63.08C151.818 64.592 153.218 65.348 154.898 65.348ZM183.049 53.336C181.705 53.448 180.613 53.056 179.773 52.16C178.989 51.264 178.597 50.004 178.597 48.38C178.597 46.868 178.961 45.748 179.689 45.02C180.473 44.292 181.593 43.872 183.049 43.76L200.269 42.08C201.669 41.968 202.733 42.332 203.461 43.172C204.245 43.956 204.637 45.132 204.637 46.7C204.637 49.724 203.181 51.376 200.269 51.656L183.049 53.336ZM232.888 74.42C229.024 74.42 225.524 73.468 222.388 71.564C219.308 69.66 216.872 66.916 215.08 63.332C213.288 59.692 212.392 55.408 212.392 50.48C212.392 41.968 214.212 34.1 217.852 26.876C221.492 19.596 226.868 13.772 233.98 9.404C241.092 4.98 249.632 2.768 259.6 2.768C262.176 2.768 264.92 2.964 267.832 3.356C270.8 3.748 273.488 4.336 275.896 5.12C277.464 5.568 278.248 6.688 278.248 8.48C278.248 9.936 277.688 11.308 276.568 12.596C275.504 13.884 274.244 14.528 272.788 14.528C272.34 14.528 272.004 14.5 271.78 14.444C268.868 13.772 266.376 13.296 264.304 13.016C262.232 12.68 260.048 12.512 257.752 12.512C250.64 12.512 244.592 14.248 239.608 17.72C234.624 21.136 230.9 25.672 228.436 31.328C225.972 36.984 224.74 43.088 224.74 49.64C224.74 54.4 225.664 58.096 227.512 60.728C229.416 63.304 231.88 64.592 234.904 64.592C238.32 64.592 241.316 63.192 243.892 60.392C246.468 57.592 248.82 53.056 250.948 46.784C253.076 40.512 255.176 32 257.248 21.248C257.584 19.68 258.256 18.616 259.264 18.056C260.272 17.496 261.616 17.216 263.296 17.216C267.272 17.216 269.26 18.504 269.26 21.08C269.26 21.528 269.176 22.088 269.008 22.76C267.552 28.192 266.208 34.212 264.976 40.82C263.8 47.372 263.212 52.356 263.212 55.772C263.212 58.796 263.66 61.008 264.556 62.408C265.452 63.752 266.824 64.424 268.672 64.424C270.464 64.424 272.172 63.836 273.796 62.66C275.42 61.428 277.464 59.356 279.928 56.444C280.6 55.66 281.356 55.268 282.196 55.268C282.924 55.268 283.484 55.604 283.876 56.276C284.324 56.948 284.548 57.872 284.548 59.048C284.548 61.232 284.016 62.968 282.952 64.256C280.208 67.56 277.52 70.08 274.888 71.816C272.256 73.552 269.036 74.42 265.228 74.42C261.308 74.42 258.144 73.3 255.736 71.06C253.328 68.764 251.816 65.544 251.2 61.4C247.056 70.08 240.952 74.42 232.888 74.42ZM283.719 74.42C281.591 74.42 280.079 73.3 279.183 71.06C278.343 68.82 277.923 65.236 277.923 60.308C277.923 53.028 278.959 46.112 281.031 39.56C281.535 37.936 282.347 36.76 283.467 36.032C284.643 35.248 286.267 34.856 288.339 34.856C289.459 34.856 290.243 34.996 290.691 35.276C291.139 35.556 291.363 36.088 291.363 36.872C291.363 37.768 290.943 39.784 290.103 42.92C289.543 45.16 289.095 47.12 288.759 48.8C288.423 50.48 288.143 52.552 287.919 55.016C289.767 50.2 291.839 46.28 294.135 43.256C296.431 40.232 298.671 38.076 300.855 36.788C303.095 35.5 305.139 34.856 306.987 34.856C310.627 34.856 312.447 36.676 312.447 40.316C312.447 42.5 311.831 46.448 310.599 52.16C309.535 57.032 309.003 60.252 309.003 61.82C309.003 64.06 309.815 65.18 311.439 65.18C312.559 65.18 313.875 64.508 315.387 63.164C316.955 61.764 319.027 59.524 321.603 56.444C322.275 55.66 323.031 55.268 323.871 55.268C324.599 55.268 325.159 55.604 325.551 56.276C325.999 56.948 326.223 57.872 326.223 59.048C326.223 61.288 325.691 63.024 324.627 64.256C322.219 67.224 319.615 69.66 316.815 71.564C314.071 73.468 310.935 74.42 307.407 74.42C304.551 74.42 302.395 73.608 300.939 71.984C299.483 70.304 298.755 67.896 298.755 64.76C298.755 63.192 299.147 60.392 299.931 56.36C300.659 52.832 301.023 50.396 301.023 49.052C301.023 48.156 300.715 47.708 300.099 47.708C299.371 47.708 298.335 48.66 296.991 50.564C295.703 52.412 294.359 54.876 292.959 57.956C291.615 61.036 290.523 64.284 289.683 67.7C289.067 70.332 288.339 72.124 287.499 73.076C286.715 73.972 285.455 74.42 283.719 74.42ZM362.267 48.212C362.995 48.212 363.555 48.576 363.947 49.304C364.339 50.032 364.535 50.956 364.535 52.076C364.535 54.764 363.723 56.36 362.099 56.864C358.739 58.04 355.043 58.712 351.011 58.88C349.947 63.584 347.847 67.364 344.711 70.22C341.575 73.02 338.019 74.42 334.043 74.42C330.683 74.42 327.799 73.608 325.391 71.984C323.039 70.36 321.247 68.204 320.015 65.516C318.783 62.828 318.167 59.916 318.167 56.78C318.167 52.524 318.979 48.744 320.603 45.44C322.227 42.08 324.467 39.476 327.323 37.628C330.179 35.724 333.343 34.772 336.815 34.772C341.071 34.772 344.487 36.256 347.063 39.224C349.695 42.136 351.235 45.748 351.683 50.06C354.315 49.892 357.451 49.332 361.091 48.38C361.539 48.268 361.931 48.212 362.267 48.212ZM334.715 65.516C336.507 65.516 338.047 64.788 339.335 63.332C340.679 61.876 341.575 59.776 342.023 57.032C340.287 55.856 338.943 54.316 337.991 52.412C337.095 50.508 336.647 48.492 336.647 46.364C336.647 45.468 336.731 44.572 336.899 43.676H336.479C334.239 43.676 332.363 44.768 330.851 46.952C329.395 49.08 328.667 52.104 328.667 56.024C328.667 59.104 329.255 61.456 330.431 63.08C331.663 64.704 333.091 65.516 334.715 65.516ZM363.289 74.42C361.161 74.42 359.649 73.3 358.753 71.06C357.913 68.82 357.493 65.236 357.493 60.308C357.493 53.028 358.529 46.112 360.601 39.56C361.105 37.936 361.917 36.76 363.037 36.032C364.213 35.248 365.837 34.856 367.909 34.856C369.029 34.856 369.813 34.996 370.261 35.276C370.709 35.556 370.933 36.088 370.933 36.872C370.933 37.768 370.513 39.784 369.673 42.92C369.113 45.16 368.665 47.12 368.329 48.8C367.993 50.48 367.713 52.552 367.489 55.016C369.337 50.2 371.409 46.28 373.705 43.256C376.001 40.232 378.241 38.076 380.425 36.788C382.665 35.5 384.709 34.856 386.557 34.856C390.197 34.856 392.017 36.676 392.017 40.316C392.017 42.5 391.401 46.448 390.169 52.16C389.105 57.032 388.573 60.252 388.573 61.82C388.573 64.06 389.385 65.18 391.009 65.18C392.129 65.18 393.445 64.508 394.957 63.164C396.525 61.764 398.597 59.524 401.173 56.444C401.845 55.66 402.601 55.268 403.441 55.268C404.169 55.268 404.729 55.604 405.121 56.276C405.569 56.948 405.793 57.872 405.793 59.048C405.793 61.288 405.261 63.024 404.197 64.256C401.789 67.224 399.185 69.66 396.385 71.564C393.641 73.468 390.505 74.42 386.977 74.42C384.121 74.42 381.965 73.608 380.509 71.984C379.053 70.304 378.325 67.896 378.325 64.76C378.325 63.192 378.717 60.392 379.501 56.36C380.229 52.832 380.593 50.396 380.593 49.052C380.593 48.156 380.285 47.708 379.669 47.708C378.941 47.708 377.905 48.66 376.561 50.564C375.273 52.412 373.929 54.876 372.529 57.956C371.185 61.036 370.093 64.284 369.253 67.7C368.637 70.332 367.909 72.124 367.069 73.076C366.285 73.972 365.025 74.42 363.289 74.42ZM442.005 55.436C442.733 55.436 443.293 55.8 443.685 56.528C444.133 57.2 444.357 58.068 444.357 59.132C444.357 60.42 444.161 61.428 443.769 62.156C443.377 62.884 442.761 63.528 441.921 64.088L425.793 74.924C423.665 86.516 420.865 95.616 417.393 102.224C413.977 108.888 409.609 112.22 404.289 112.22C401.433 112.22 399.109 111.324 397.317 109.532C395.525 107.796 394.629 105.5 394.629 102.644C394.629 100.012 395.217 97.324 396.393 94.58C397.625 91.836 399.865 88.672 403.113 85.088C406.417 81.56 411.065 77.5 417.057 72.908L417.309 70.976C417.701 68.904 418.149 65.936 418.653 62.072C417.533 66.104 415.965 69.184 413.949 71.312C411.933 73.384 409.805 74.42 407.565 74.42C405.045 74.42 402.973 73.272 401.349 70.976C399.781 68.624 398.997 65.712 398.997 62.24C398.997 58.04 399.277 54.204 399.837 50.732C400.397 47.204 401.321 43.48 402.609 39.56C403.169 37.88 403.953 36.676 404.961 35.948C405.969 35.22 407.565 34.856 409.749 34.856C410.981 34.856 411.821 35.052 412.269 35.444C412.773 35.836 413.025 36.424 413.025 37.208C413.025 37.656 412.717 39.168 412.101 41.744C411.541 43.816 411.093 45.692 410.757 47.372C410.309 49.668 409.917 51.88 409.581 54.008C409.245 56.08 409.077 57.788 409.077 59.132C409.077 61.26 409.665 62.324 410.841 62.324C411.681 62.324 412.717 61.484 413.949 59.804C415.237 58.124 416.581 55.576 417.981 52.16C419.437 48.744 420.837 44.544 422.181 39.56C422.629 37.88 423.301 36.676 424.197 35.948C425.149 35.22 426.549 34.856 428.397 34.856C429.685 34.856 430.581 35.024 431.085 35.36C431.589 35.696 431.841 36.256 431.841 37.04C431.841 38.44 431.113 43.256 429.657 51.488L427.473 65.012C431.785 61.764 435.985 58.796 440.073 56.108C440.801 55.66 441.445 55.436 442.005 55.436ZM405.213 104.072C406.613 104.072 408.181 102.448 409.917 99.2C411.653 95.952 413.389 90.548 415.125 82.988C410.813 86.628 407.677 89.932 405.717 92.9C403.813 95.924 402.861 98.556 402.861 100.796C402.861 101.748 403.029 102.532 403.365 103.148C403.757 103.764 404.373 104.072 405.213 104.072ZM444.254 74.42C442.126 74.42 440.614 73.3 439.718 71.06C438.878 68.82 438.458 65.236 438.458 60.308C438.458 53.028 439.494 46.112 441.566 39.56C442.07 37.936 442.882 36.76 444.002 36.032C445.178 35.248 446.802 34.856 448.874 34.856C449.994 34.856 450.778 34.996 451.226 35.276C451.674 35.556 451.898 36.088 451.898 36.872C451.898 37.768 451.478 39.784 450.638 42.92C450.078 45.16 449.63 47.12 449.294 48.8C448.958 50.424 448.678 52.468 448.454 54.932C449.966 50.564 451.758 46.868 453.83 43.844C455.958 40.82 458.114 38.58 460.298 37.124C462.538 35.612 464.638 34.856 466.598 34.856C468.558 34.856 469.93 35.304 470.714 36.2C471.554 37.096 471.974 38.468 471.974 40.316C471.974 42.108 471.442 45.356 470.378 50.06C469.93 52.076 469.622 53.588 469.454 54.596C472.254 47.708 475.362 42.696 478.778 39.56C482.194 36.424 485.386 34.856 488.354 34.856C491.994 34.856 493.814 36.676 493.814 40.316C493.814 42.5 493.198 46.448 491.966 52.16C490.902 57.032 490.37 60.252 490.37 61.82C490.37 64.06 491.182 65.18 492.806 65.18C493.926 65.18 495.242 64.508 496.754 63.164C498.322 61.764 500.394 59.524 502.97 56.444C503.642 55.66 504.398 55.268 505.238 55.268C505.966 55.268 506.526 55.604 506.918 56.276C507.366 56.948 507.59 57.872 507.59 59.048C507.59 61.288 507.058 63.024 505.994 64.256C503.586 67.224 500.982 69.66 498.182 71.564C495.438 73.468 492.302 74.42 488.774 74.42C485.918 74.42 483.762 73.608 482.306 71.984C480.85 70.304 480.122 67.896 480.122 64.76C480.122 63.192 480.514 60.392 481.298 56.36C482.026 52.832 482.39 50.396 482.39 49.052C482.39 48.156 482.082 47.708 481.466 47.708C480.738 47.708 479.702 48.66 478.358 50.564C477.014 52.412 475.67 54.876 474.326 57.956C472.982 61.036 471.89 64.284 471.05 67.7C470.434 70.388 469.706 72.18 468.866 73.076C468.082 73.972 466.794 74.42 465.002 74.42C463.154 74.42 461.754 73.552 460.802 71.816C459.906 70.024 459.458 67.868 459.458 65.348C459.458 63.22 459.738 60.14 460.298 56.108C460.746 52.524 460.97 50.172 460.97 49.052C460.97 48.156 460.662 47.708 460.046 47.708C459.206 47.708 458.142 48.716 456.854 50.732C455.566 52.748 454.306 55.324 453.074 58.46C451.898 61.596 450.946 64.676 450.218 67.7C449.602 70.332 448.874 72.124 448.034 73.076C447.25 73.972 445.99 74.42 444.254 74.42ZM511.802 29.312C509.45 29.312 507.686 28.78 506.51 27.716C505.334 26.596 504.746 25.056 504.746 23.096C504.746 21.136 505.502 19.512 507.014 18.224C508.582 16.88 510.514 16.208 512.81 16.208C514.882 16.208 516.562 16.712 517.85 17.72C519.138 18.728 519.782 20.156 519.782 22.004C519.782 24.244 519.054 26.036 517.598 27.38C516.142 28.668 514.21 29.312 511.802 29.312ZM511.13 74.42C507.49 74.42 504.83 73.132 503.15 70.556C501.526 67.98 500.714 64.564 500.714 60.308C500.714 57.788 501.022 54.568 501.638 50.648C502.31 46.672 503.15 42.976 504.158 39.56C504.662 37.768 505.334 36.536 506.174 35.864C507.014 35.192 508.358 34.856 510.206 34.856C513.062 34.856 514.49 35.808 514.49 37.712C514.49 39.112 513.958 42.36 512.894 47.456C511.55 53.616 510.878 57.788 510.878 59.972C510.878 61.652 511.102 62.94 511.55 63.836C511.998 64.732 512.754 65.18 513.818 65.18C514.826 65.18 516.086 64.48 517.598 63.08C519.11 61.68 521.126 59.468 523.646 56.444C524.318 55.66 525.074 55.268 525.914 55.268C526.642 55.268 527.202 55.604 527.594 56.276C528.042 56.948 528.266 57.872 528.266 59.048C528.266 61.288 527.734 63.024 526.67 64.256C521.126 71.032 515.946 74.42 511.13 74.42ZM558.934 55.268C559.662 55.268 560.222 55.604 560.613 56.276C561.062 56.948 561.286 57.872 561.286 59.048C561.286 61.288 560.754 63.024 559.69 64.256C557.282 67.224 554.65 69.66 551.794 71.564C548.938 73.468 545.662 74.42 541.966 74.42C530.542 74.42 524.83 66.384 524.83 50.312C524.83 47.848 524.914 45.356 525.082 42.836H521.806C520.126 42.836 518.978 42.528 518.362 41.912C517.802 41.296 517.522 40.316 517.522 38.972C517.522 35.836 518.782 34.268 521.302 34.268H526.09C527.042 28.108 528.498 22.48 530.458 17.384C532.418 12.288 534.77 8.228 537.514 5.20399C540.314 2.18 543.31 0.667998 546.502 0.667998C548.854 0.667998 550.702 1.704 552.046 3.776C553.39 5.848 554.062 8.452 554.062 11.588C554.062 20.268 550.422 27.828 543.142 34.268H552.55C553.446 34.268 554.09 34.464 554.482 34.856C554.874 35.248 555.07 35.976 555.07 37.04C555.07 40.904 551.906 42.836 545.578 42.836H535.33C535.218 45.636 535.162 47.82 535.162 49.388C535.162 55.212 535.834 59.3 537.178 61.652C538.578 64.004 540.762 65.18 543.73 65.18C546.138 65.18 548.266 64.452 550.114 62.996C551.962 61.54 554.146 59.356 556.666 56.444C557.338 55.66 558.094 55.268 558.934 55.268ZM544.234 8.732C543.394 8.732 542.442 9.796 541.378 11.924C540.37 13.996 539.39 16.908 538.438 20.66C537.542 24.356 536.786 28.472 536.17 33.008C539.474 30.152 541.938 26.96 543.562 23.432C545.242 19.848 546.082 16.6 546.082 13.688C546.082 10.384 545.466 8.732 544.234 8.732ZM583.846 34.856C585.134 34.856 586.03 35.024 586.534 35.36C587.038 35.696 587.29 36.256 587.29 37.04C587.29 38.384 586.562 43.172 585.106 51.404C583.818 59.3 583.062 63.976 582.838 65.432C580.766 79.824 577.91 91.22 574.27 99.62C570.63 108.02 565.786 112.22 559.738 112.22C556.882 112.22 554.558 111.324 552.766 109.532C550.974 107.796 550.078 105.5 550.078 102.644C550.078 100.012 550.666 97.324 551.842 94.58C553.074 91.836 555.314 88.672 558.562 85.088C561.866 81.56 566.514 77.5 572.506 72.908L572.758 70.976C573.15 68.904 573.598 65.936 574.102 62.072C572.982 66.104 571.414 69.184 569.398 71.312C567.382 73.384 565.254 74.42 563.014 74.42C560.494 74.42 558.422 73.272 556.798 70.976C555.23 68.624 554.446 65.712 554.446 62.24C554.446 58.04 554.726 54.204 555.286 50.732C555.846 47.204 556.77 43.48 558.058 39.56C558.618 37.88 559.402 36.676 560.41 35.948C561.418 35.22 563.014 34.856 565.198 34.856C566.43 34.856 567.27 35.052 567.718 35.444C568.222 35.836 568.474 36.424 568.474 37.208C568.474 37.656 568.166 39.168 567.55 41.744C566.99 43.816 566.542 45.692 566.206 47.372C565.758 49.668 565.366 51.88 565.03 54.008C564.694 56.08 564.526 57.788 564.526 59.132C564.526 61.26 565.114 62.324 566.29 62.324C567.13 62.324 568.166 61.484 569.398 59.804C570.686 58.124 572.03 55.576 573.43 52.16C574.886 48.744 576.286 44.544 577.63 39.56C578.078 37.88 578.75 36.676 579.646 35.948C580.598 35.22 581.998 34.856 583.846 34.856ZM560.662 104.072C562.062 104.072 563.63 102.448 565.366 99.2C567.102 95.952 568.838 90.548 570.574 82.988C566.262 86.628 563.126 89.932 561.166 92.9C559.262 95.924 558.31 98.556 558.31 100.796C558.31 101.748 558.478 102.532 558.814 103.148C559.206 103.764 559.822 104.072 560.662 104.072Z" fill="black"/>
</svg>
